<svg width="96" height="96" viewBox="0 0 96 96" fill="none" xmlns="http://www.w3.org/2000/svg">
<path fill-rule="evenodd" clip-rule="evenodd" d="M30.8284 25.1716C29.2663 23.6095 26.7337 23.6095 25.1716 25.1716C23.6095 26.7337 23.6095 29.2663 25.1716 30.8284L58.3431 64H28C25.7909 64 24 65.7909 24 68C24 70.2091 25.7909 72 28 72H67.9972H68C68.0062 72 68.0123 72 68.0185 72C68.5541 71.9975 69.0649 71.8898 69.5311 71.6965C69.9939 71.505 70.4281 71.2229 70.8065 70.8502C70.8212 70.8357 70.8357 70.8212 70.8502 70.8065C71.6121 70.033 71.9953 69.0264 72 68.0185C72 68.0123 72 68.0062 72 68V67.9972V28C72 25.7909 70.2091 24 68 24C65.7909 24 64 25.7909 64 28V58.3431L30.8284 25.1716Z" fill="black"/>
</svg>
