<svg width="96" height="96" viewBox="0 0 96 96" fill="none" xmlns="http://www.w3.org/2000/svg">
<path fill-rule="evenodd" clip-rule="evenodd" d="M48 12C28.1177 12 12 28.1177 12 48C12 67.8823 28.1177 84 48 84C67.8823 84 84 67.8823 84 48C84 28.1177 67.8823 12 48 12ZM4 48C4 23.6995 23.6995 4 48 4C72.3005 4 92 23.6995 92 48C92 72.3005 72.3005 92 48 92C23.6995 92 4 72.3005 4 48Z" fill="black"/>
<path d="M50.8284 29.1716C49.2663 27.6095 46.7337 27.6095 45.1716 29.1716L29.1716 45.1716C27.6095 46.7337 27.6095 49.2663 29.1716 50.8284C30.7337 52.3905 33.2663 52.3905 34.8284 50.8284L44 41.6569V64C44 66.2091 45.7909 68 48 68C50.2091 68 52 66.2091 52 64V41.6569L61.1716 50.8284C62.7337 52.3905 65.2663 52.3905 66.8284 50.8284C68.3905 49.2663 68.3905 46.7337 66.8284 45.1716L50.8284 29.1716Z" fill="black"/>
</svg>
