<svg width="96" height="96" viewBox="0 0 96 96" fill="none" xmlns="http://www.w3.org/2000/svg">
<g id="right-circle">
<g id="Vector">
<path fill-rule="evenodd" clip-rule="evenodd" d="M48 12C28.1177 12 12 28.1177 12 48C12 67.8823 28.1177 84 48 84C67.8823 84 84 67.8823 84 48C84 28.1177 67.8823 12 48 12ZM4 48C4 23.6995 23.6995 4 48 4C72.3005 4 92 23.6995 92 48C92 72.3005 72.3005 92 48 92C23.6995 92 4 72.3005 4 48Z" fill="black"/>
<path d="M50.8284 29.1716C49.2663 27.6095 46.7337 27.6095 45.1716 29.1716C43.6095 30.7337 43.6095 33.2663 45.1716 34.8284L54.3431 44H32C29.7909 44 28 45.7909 28 48C28 50.2091 29.7909 52 32 52H54.3431L45.1716 61.1716C43.6095 62.7337 43.6095 65.2663 45.1716 66.8284C46.7337 68.3905 49.2663 68.3905 50.8284 66.8284L66.8284 50.8284C68.3905 49.2663 68.3905 46.7337 66.8284 45.1716L50.8284 29.1716Z" fill="black"/>
</g>
</g>
</svg>
