<svg width="96" height="96" viewBox="0 0 96 96" fill="none" xmlns="http://www.w3.org/2000/svg">
<path fill-rule="evenodd" clip-rule="evenodd" d="M57.9997 5.15382C48.3288 2.89694 38.179 3.97789 29.2004 8.22093C20.2218 12.464 12.9426 19.6195 8.54637 28.5241C4.15016 37.4287 2.89549 47.5586 4.98638 57.2666C7.07727 66.9747 12.3907 75.6899 20.0628 81.9953C27.7349 88.3006 37.3143 91.8252 47.2435 91.996C57.1727 92.1667 66.8677 88.9736 74.7521 82.9357C76.506 81.5926 76.839 79.0819 75.4958 77.328C74.1526 75.574 71.642 75.2411 69.8881 76.5842C63.4372 81.5243 55.505 84.1369 47.3811 83.9972C39.2572 83.8575 31.4195 80.9737 25.1423 75.8148C18.8652 70.6559 14.5178 63.5252 12.807 55.5822C11.0963 47.6393 12.1229 39.3512 15.7198 32.0656C19.3167 24.7801 25.2724 18.9255 32.6185 15.4539C39.9646 11.9824 48.2691 11.0979 56.1815 12.9445C64.094 14.791 71.1492 19.2599 76.1998 25.6245C81.2504 31.9891 83.9995 39.8752 84.0001 48.0002V52C84.0001 54.1217 83.1572 56.1565 81.6569 57.6568C80.1566 59.1571 78.1218 60 76.0001 60C73.8783 60 71.8435 59.1571 70.3432 57.6568C68.8429 56.1565 68.0001 54.1217 68.0001 52V32C68.0001 29.7908 66.2092 28 64 28C61.7914 28 60.0008 29.7901 60 31.9986C56.6574 29.4878 52.5024 28 48 28C36.9543 28 28 36.9543 28 48C28 59.0457 36.9543 68 48 68C53.9524 68 59.2974 65.3997 62.9611 61.273C63.475 61.9955 64.0512 62.6785 64.6863 63.3137C67.6869 66.3143 71.7566 68 76.0001 68C80.2435 68 84.3132 66.3143 87.3138 63.3137C90.3143 60.3131 92.0001 56.2434 92.0001 52V47.9997C91.9994 38.069 88.6395 28.4306 82.4664 20.6516C76.2934 12.8727 67.6705 7.4107 57.9997 5.15382ZM36 48C36 41.3726 41.3726 36 48 36C54.6274 36 60 41.3726 60 48C60 54.6274 54.6274 60 48 60C41.3726 60 36 54.6274 36 48Z" fill="black"/>
</svg>
