<svg width="96" height="96" viewBox="0 0 96 96" fill="none" xmlns="http://www.w3.org/2000/svg">
<g clip-path="url(#clip0)">
<path fill-rule="evenodd" clip-rule="evenodd" d="M60.7333 62.5428C60.7333 66.9428 64.3333 70.5428 68.7333 70.5428C73.1333 70.5428 76.7333 66.9428 76.7333 62.5428C76.7333 58.1428 73.1333 54.5428 68.7333 54.5428C64.3333 54.5428 60.7333 58.1428 60.7333 62.5428ZM63.3999 62.4762C63.3999 59.5428 65.7999 57.1428 68.7333 57.1428C71.6666 57.1428 74.1333 59.5428 74.0666 62.4762C74.0666 65.4095 71.6666 67.8095 68.7333 67.8095C65.7999 67.8095 63.3999 65.4095 63.3999 62.4762ZM64.7999 62.3428C64.7999 64.5428 66.5333 66.2762 68.7333 66.2762C70.9333 66.2762 72.6666 64.5428 72.6666 62.3428C72.6666 60.1428 70.9333 58.4095 68.7333 58.4095C66.5333 58.4095 64.7999 60.1428 64.7999 62.3428ZM67.4666 62.3428C67.4666 61.6762 68.0666 61.0762 68.7333 61.0762C69.4666 61.0762 69.9999 61.6762 69.9999 62.3428C69.9999 63.0095 69.3999 63.6095 68.7333 63.6095C68.0666 63.6095 67.4666 63.0095 67.4666 62.3428Z" fill="#4D5160"/>
<path fill-rule="evenodd" clip-rule="evenodd" d="M15.4667 62.5428C15.4667 66.9428 19.0667 70.5428 23.4667 70.5428C27.9333 70.5428 31.4667 66.9428 31.4667 62.5428C31.4667 58.1428 27.8667 54.5428 23.4667 54.5428C19.0667 54.5428 15.4667 58.1428 15.4667 62.5428ZM18.1333 62.4762C18.1333 59.5428 20.5333 57.1428 23.4667 57.1428C26.4667 57.1428 28.8667 59.5428 28.8 62.4762C28.8 65.4095 26.4 67.8095 23.4667 67.8095C20.5333 67.8095 18.1333 65.4095 18.1333 62.4762ZM19.5333 62.3428C19.5333 64.5428 21.2667 66.2762 23.4667 66.2762C25.6667 66.2762 27.4 64.5428 27.4 62.3428C27.4 60.1428 25.6667 58.4095 23.4667 58.4095C21.2667 58.4095 19.5333 60.1428 19.5333 62.3428ZM22.2 62.3428C22.2 61.6762 22.8 61.0762 23.4667 61.0762C24.2 61.0762 24.7333 61.6762 24.7333 62.3428C24.7333 63.0095 24.1333 63.6095 23.4667 63.6095C22.8 63.6095 22.2 63.0095 22.2 62.3428Z" fill="#4D5160"/>
<path fill-rule="evenodd" clip-rule="evenodd" d="M49.8666 22.4762C50.3821 22.4762 50.7999 22.8941 50.7999 23.4095V24.2095C50.7999 24.725 50.3821 25.1429 49.8666 25.1429H48.0885C47.5807 25.1429 47.2304 25.6515 47.4114 26.1258C47.5952 26.6074 47.3537 27.1468 46.8721 27.3306L46.1247 27.6158C45.6431 27.7995 45.1037 27.5581 44.9199 27.0765L44.1832 25.1456C44.1825 25.144 44.181 25.1429 44.1792 25.1429H23.3963C23.3731 25.1429 23.3526 25.1578 23.3443 25.1795L22.6076 27.1103C22.4238 27.5919 21.8844 27.8334 21.4028 27.6496L20.6554 27.3644C20.1738 27.1807 19.9323 26.6413 20.1161 26.1597C20.3033 25.669 19.941 25.1429 19.4158 25.1429H17.6666C17.1512 25.1429 16.7333 24.725 16.7333 24.2095V23.4095C16.7333 22.8941 17.1512 22.4762 17.6666 22.4762H49.8666ZM10.0846 56.1816L12.4667 32.8762C12.7333 30.5429 14.6667 28.8095 17 28.8095H52.7333C54.2666 28.8095 55.6666 29.5429 56.5333 30.8095L63.6 41.8762L78.6666 44.5428C81.8666 45.0762 84.3333 47.6095 84.8 50.8095V50.8762L85.1759 55.7642C86.3022 55.9204 87.1999 56.9141 87.1999 58.0762V58.2095C87.1332 61.4095 84.5333 64.0762 81.3333 64.0762H76.0666V61.4095H81.3333C83.0666 61.4095 84.4666 60.0762 84.5332 58.4095H79.1333C78.6178 58.4095 78.1999 57.9916 78.1999 57.4762V56.6762C78.1999 56.1607 78.6178 55.7428 79.1333 55.7428H82.4911L82.3459 53.8762H77.9999C75.8666 53.8762 74.1333 52.1428 74.1333 50.0095V49.6762C74.1333 49.1607 74.5512 48.7428 75.0666 48.7428H75.8666C76.3821 48.7428 76.7999 49.1607 76.7999 49.6762V50.0095C76.7999 50.6762 77.3333 51.2095 77.9999 51.2095H82.1385L82.1333 51.1428C81.8 49.0762 80.1999 47.4762 78.1999 47.1428L62 44.2762L61.9576 44.2095H23.2C22.4667 44.2095 21.7333 43.8762 21.2 43.3428C20.6667 42.8095 20.4667 42.0762 20.5333 41.2762L21 35.9428C21.1333 34.5428 22.2667 33.5428 23.6667 33.5428H42.3333C42.8488 33.5428 43.2666 33.9607 43.2666 34.4762V35.2762C43.2666 35.7916 42.8488 36.2095 42.3333 36.2095H40.9333V41.5428H60.2633L54.3333 32.2095C54 31.7429 53.4 31.4095 52.8 31.4095H17C16 31.4095 15.2 32.1429 15.1333 33.0762L13.4481 49.6095H28.6264C28.9052 49.6095 29.1693 49.7341 29.3466 49.9492L33.7866 55.3364C33.9639 55.5515 34.2281 55.6762 34.5069 55.6762H59.1333C59.6488 55.6762 60.0666 56.094 60.0666 56.6095V57.4095C60.0666 57.9249 59.6488 58.3428 59.1333 58.3428H33.3032C33.0265 58.3428 32.7641 58.2201 32.5868 58.0078L28.0798 52.6112C27.9025 52.3989 27.6401 52.2761 27.3634 52.2761H13.1763L12.8298 55.6762H14.6667C15.1821 55.6762 15.6 56.094 15.6 56.6095V57.4095C15.6 57.9249 15.1821 58.3428 14.6667 58.3428H12.0667C11.2667 58.3428 10.6667 58.9428 10.6667 59.7428C10.6667 60.5428 11.2667 61.1428 12.0667 61.1428H15.8667C16.3821 61.1428 16.8 61.5607 16.8 62.0761V62.8761C16.8 63.3916 16.3821 63.8095 15.8667 63.8095H12.0667C9.8 63.8095 8 62.0095 8 59.7428C8 58.1986 8.8354 56.871 10.0846 56.1816ZM23.8957 36.2095H38.2667V41.5428H23.4728C23.3261 41.5428 23.211 41.4172 23.2238 41.271L23.6467 36.4377C23.658 36.3086 23.7661 36.2095 23.8957 36.2095ZM61.4666 61.4095H30.2V64.0762H61.4666V61.4095ZM50.6666 35.2762C50.6666 35.7916 50.2488 36.2095 49.7333 36.2095H48.9333C48.4178 36.2095 48 35.7916 48 35.2762V34.4762C48 33.9607 48.4178 33.5428 48.9333 33.5428H49.7333C50.2488 33.5428 50.6666 33.9607 50.6666 34.4762V35.2762ZM39.2 46.0095H40C40.5155 46.0095 40.9333 46.4274 40.9333 46.9428V53.0762C40.9333 53.5916 40.5155 54.0095 40 54.0095H39.2C38.6845 54.0095 38.2667 53.5916 38.2667 53.0762V46.9428C38.2667 46.4274 38.6845 46.0095 39.2 46.0095Z" fill="#4D5160"/>
<path fill-rule="evenodd" clip-rule="evenodd" d="M81 69.6857H81.8C82.3154 69.6857 82.7333 70.1035 82.7333 70.619V71.419C82.7333 71.9345 82.3154 72.3523 81.8 72.3523H81C80.4845 72.3523 80.0667 71.9345 80.0667 71.419V70.619C80.0667 70.1035 80.4845 69.6857 81 69.6857ZM12.8 69.6857H75.2C75.7155 69.6857 76.1333 70.1035 76.1333 70.619V71.419C76.1333 71.9345 75.7155 72.3523 75.2 72.3523H12.8C12.2846 72.3523 11.8667 71.9345 11.8667 71.419V70.619C11.8667 70.1035 12.2846 69.6857 12.8 69.6857Z" fill="#4D5160"/>
</g>
<defs>
<clipPath id="clip0">
<rect width="80" height="52" fill="white" transform="translate(8 22)"/>
</clipPath>
</defs>
</svg>
