<svg width="48" height="48" viewBox="0 0 48 48" fill="none" xmlns="http://www.w3.org/2000/svg">
<path d="M41.7049 31.6066H6.75413C6.39197 31.6066 6.09839 31.9002 6.09839 32.2623C6.09839 32.6245 6.39197 32.918 6.75413 32.918H41.7049C42.0671 32.918 42.3607 32.6245 42.3607 32.2623C42.3607 31.9002 42.0671 31.6066 41.7049 31.6066Z" fill="#4D5160"/>
<path d="M42.7239 24.6075L42.6267 24.5744C39.0646 23.0193 35.3083 21.9274 31.4871 21.3649L29.9651 21.2656L26.6621 20.9347C26.144 20.9016 25.6259 20.9016 25.0754 20.9016H9.56411C7.68592 20.9016 6.16394 22.4568 6.16394 24.3758V25.9971C6.16394 26.1013 6.31945 26.1067 6.35227 26.0079C6.80859 24.6339 8.08203 23.6479 9.56411 23.6479H25.0754C25.5935 23.6479 26.1116 23.6479 26.6621 23.681L29.9651 24.0119L31.4871 24.1111C35.3083 24.6736 39.0646 25.7655 42.6267 27.3207L42.7239 27.3537C43.0153 27.4861 43.2096 27.7839 43.2096 28.1148V25.3354C43.242 25.0376 43.0477 24.7398 42.7239 24.6075Z" fill="#FED647"/>
<path fill-rule="evenodd" clip-rule="evenodd" d="M9.54102 27.9508C9.54102 30.1475 11.3115 31.918 13.5082 31.918C15.6722 31.918 17.4754 30.1475 17.4754 27.9508C17.4754 25.7541 15.705 23.9836 13.5082 23.9836C11.3115 23.9836 9.54102 25.7541 9.54102 27.9508ZM10.8525 27.9836C10.8525 26.5082 12.0656 25.3279 13.5082 25.3279C14.9509 25.3279 16.164 26.5082 16.164 27.9836C16.164 29.459 14.9509 30.6394 13.5082 30.6394C12.0328 30.6394 10.8525 29.459 10.8525 27.9836ZM11.6066 27.8853C11.6066 28.9344 12.4591 29.7869 13.5082 29.7869C14.5574 29.7869 15.3771 28.9344 15.4099 27.8853C15.4099 26.8361 14.5574 25.9836 13.5082 25.9836C12.4591 25.9836 11.6066 26.8361 11.6066 27.8853ZM12.9181 27.918C12.9181 27.5902 13.1804 27.3279 13.5082 27.3279C13.8361 27.3279 14.0656 27.5902 14.0984 27.918C14.0984 28.2459 13.8361 28.5082 13.5082 28.5082C13.1804 28.5082 12.9181 28.2459 12.9181 27.918Z" fill="#4D5160"/>
<path fill-rule="evenodd" clip-rule="evenodd" d="M29.2787 27.9508C29.2787 30.1475 31.0492 31.918 33.2459 31.918C35.4098 31.918 37.2131 30.1475 37.2131 27.9508C37.2131 25.7541 35.4426 23.9836 33.2459 23.9836C31.0492 23.9836 29.2787 25.7541 29.2787 27.9508ZM30.5902 27.9836C30.5902 26.5082 31.8033 25.3279 33.2459 25.3279C34.6885 25.3279 35.9016 26.5082 35.9016 27.9836C35.9016 29.459 34.6885 30.6394 33.2459 30.6394C31.7705 30.6394 30.5902 29.459 30.5902 27.9836ZM31.3443 27.8853C31.3443 28.9344 32.1968 29.7869 33.2459 29.7869C34.2623 29.7869 35.1148 28.9344 35.1476 27.8853C35.1476 26.8361 34.2951 25.9836 33.2459 25.9836C32.1968 25.9836 31.3443 26.8361 31.3443 27.8853ZM32.6558 27.918C32.6558 27.5902 32.9181 27.3279 33.2459 27.3279C33.541 27.3279 33.8033 27.5902 33.8361 27.918C33.8361 28.2459 33.5738 28.5082 33.2459 28.5082C32.9181 28.5082 32.6558 28.2459 32.6558 27.918Z" fill="#4D5160"/>
<path fill-rule="evenodd" clip-rule="evenodd" d="M33.1103 19.7458C33.2282 19.833 33.3071 19.952 33.3449 20.0819C36.3036 20.6954 39.2017 21.6074 41.9672 22.8033L42.0656 22.8361C42.6229 23.0656 42.9508 23.5902 42.9508 24.1803V27.1311H43.0328C43.4221 27.1311 43.7377 27.4468 43.7377 27.8361C43.7377 28.2254 43.4221 28.541 43.0328 28.541H42.7377L42.736 28.541H38.9508C38.5887 28.541 38.2951 28.2474 38.2951 27.8852C38.2951 27.5231 38.5887 27.2295 38.9508 27.2295H41.4221C41.5602 27.2295 41.6721 27.1176 41.6721 26.9795V25.8052C41.6269 25.8062 41.5808 25.8026 41.5345 25.7939L41.1475 25.7213C40.3934 25.5902 39.6721 25.3279 39.0164 24.9016L38.7051 24.7172C38.3898 24.5303 38.2892 24.1212 38.4817 23.8095C38.6694 23.5057 39.0658 23.4081 39.3729 23.5902L39.7049 23.7869C40.2295 24.1148 40.7869 24.3115 41.3771 24.4098L41.6721 24.4652V24.1475C41.6721 24.115 41.664 24.0824 41.6479 24.0539C41.6158 23.9973 41.5491 23.9752 41.4867 23.9546L41.4754 23.9508C37.9344 22.4426 34.1967 21.3934 30.3607 20.8361L28.8525 20.7377C28.1967 20.7049 27.5738 20.3115 27.2459 19.7213C26.8527 19.0559 26.9896 18.1952 27.5537 17.7055C26.6287 17.1506 25.8366 16.694 25.361 16.4216C25.0774 16.2591 24.9922 15.9504 25.1482 15.6631C25.3457 15.2992 25.8032 15.1646 26.1632 15.3689C27.5506 16.156 30.8201 18.0518 33.1103 19.7458ZM28.459 18.6721C28.5621 18.5985 28.6334 18.4967 28.6699 18.3847C29.2939 18.7702 29.9421 19.1811 30.5698 19.5966L30.5246 19.5902L28.9508 19.459C28.7213 19.4262 28.5246 19.2951 28.3934 19.0984C28.2951 18.9344 28.3279 18.7705 28.459 18.6721ZM7.91501 28.3037C8.25079 28.4525 8.64345 28.2989 8.78922 27.9618C8.93317 27.6289 8.78194 27.2423 8.45036 27.0954L6.45902 26.2131C5.86886 25.9836 5.50819 25.3934 5.50819 24.7705V24.7386L6.73096 24.3363C7.37083 24.1259 7.80327 23.5284 7.80327 22.8548V22.7705C7.80327 21.9556 7.14271 21.2951 6.32786 21.2951H6.22635C6.73607 20.7311 7.47365 20.377 8.29508 20.377H24C24.298 20.377 24.5959 20.377 24.8939 20.3831C25.2654 20.3905 25.5815 20.1011 25.5908 19.7296C25.5996 19.3772 25.3281 19.0807 24.9757 19.0729C24.6482 19.0656 24.3181 19.0656 24 19.0656H20.1017L17.7377 16.6393C17.5082 16.4098 17.1803 16.2787 16.8524 16.2787H16.3934C15.9672 16.2787 15.5738 16.5082 15.3442 16.8689C15.1147 17.2623 15.082 17.6885 15.2787 18.082L15.7535 19.0656H13.5834L14.327 18.8103C14.6696 18.6927 14.8519 18.3197 14.7343 17.9771C14.6167 17.6346 14.2437 17.4523 13.9012 17.5699L10.149 18.858C10.0281 18.8995 9.92707 18.9729 9.85222 19.0656H8.29508C6.03278 19.0656 4.19672 20.9016 4.19672 23.1639V24.7705C4.19672 25.918 4.88525 26.9672 5.93443 27.4262L7.91501 28.3037ZM17.2065 19.0656L16.5246 17.6229H16.8524L18.2581 19.0656H17.2065ZM6.31943 23.0867L5.50819 23.3402V23.1639C5.50819 22.973 5.52732 22.7866 5.56376 22.6066H6.24616C6.38182 22.6066 6.4918 22.7165 6.4918 22.8522C6.4918 22.9596 6.42198 23.0546 6.31943 23.0867ZM18.9508 27.2295H27.5738C27.9359 27.2295 28.2295 27.5231 28.2295 27.8852C28.2295 28.2474 27.9359 28.541 27.5738 28.541H18.9508C18.5887 28.541 18.2951 28.2474 18.2951 27.8852C18.2951 27.5231 18.5887 27.2295 18.9508 27.2295ZM18.9836 21.623H20.6229C20.9851 21.623 21.2787 21.9165 21.2787 22.2787C21.2787 22.6408 20.9851 22.9344 20.6229 22.9344H18.9836C18.6214 22.9344 18.3278 22.6408 18.3278 22.2787C18.3278 21.9165 18.6214 21.623 18.9836 21.623Z" fill="#4D5160"/>
</svg>
