<svg width="48" height="48" viewBox="0 0 48 48" fill="none" xmlns="http://www.w3.org/2000/svg">
<g id="sports-Blue">
<g id="sports">
<path id="color" d="M42.713 24.5852L41.9826 24.2373C40.0348 23.2634 37.9478 22.6026 35.7913 22.3243L30.4348 21.5939L30.3652 21.5591C30.3304 21.5243 30.2956 21.5243 30.2956 21.4895L30.2609 21.6634L29.113 22.3939L18.4 21.5591L15.9652 19.5765C15.9652 19.5765 7.44348 22.5678 7.44348 22.6026C6.95653 23.4026 6.78261 24.3765 6.92174 25.3156L7.44348 28.6547H10.1913L11.687 28.62C11.6174 28.3765 11.5826 28.0982 11.5826 27.82C11.5826 26.22 12.9043 24.8982 14.5043 24.8982C16.1043 24.8982 17.4261 26.22 17.4261 27.82C17.4261 28.0634 17.3913 28.3069 17.3217 28.5156L19.1304 28.4808H33.1478L34.8174 28.5852C34.7478 28.3417 34.713 28.0634 34.713 27.82C34.713 26.22 36.0348 24.8982 37.6348 24.8982C39.2348 24.8982 40.5565 26.22 40.5565 27.82C40.5565 28.2026 40.4869 28.5852 40.3478 28.933L41.6 29.0026L43.7217 28.62V26.046C43.5826 25.42 43.2348 24.8634 42.713 24.5852Z" fill="#80B6F0"/>
<path id="street" d="M42.0522 30.0026H4.97391C4.58971 30.0026 4.27826 30.314 4.27826 30.6982C4.27826 31.0824 4.58971 31.3939 4.97391 31.3939H42.0522C42.4364 31.3939 42.7478 31.0824 42.7478 30.6982C42.7478 30.314 42.4364 30.0026 42.0522 30.0026Z" fill="#4D5160"/>
<path id="wheel" fill-rule="evenodd" clip-rule="evenodd" d="M9.70435 26.7765C9.70435 28.7591 11.3391 30.3939 13.3217 30.3939C15.3043 30.3939 16.9391 28.7939 16.9391 26.7765C16.9391 24.7939 15.3043 23.1591 13.3217 23.1591C11.3391 23.1591 9.70435 24.7939 9.70435 26.7765ZM11.0956 26.8113C11.0956 25.5939 12.1043 24.5852 13.3217 24.5852C14.5391 24.5852 15.5478 25.5591 15.5478 26.8113C15.5478 28.0287 14.5391 29.0374 13.3217 29.0374C12.1043 29.0374 11.0956 28.0287 11.0956 26.8113ZM13.3217 27.82C12.7304 27.82 12.2435 27.333 12.2435 26.7417C12.2435 26.1504 12.7304 25.6634 13.3217 25.6634C13.913 25.6634 14.4 26.1504 14.4 26.7417C14.4 27.333 13.913 27.82 13.3217 27.82Z" fill="#4D5160"/>
<path id="wheel_2" fill-rule="evenodd" clip-rule="evenodd" d="M32.8 26.7765C32.8 28.7591 34.4348 30.3939 36.4174 30.3939C38.4348 30.3939 40.0348 28.7939 40.0348 26.7765C40.0348 24.7939 38.4 23.1591 36.4174 23.1591C34.4348 23.1591 32.8 24.7939 32.8 26.7765ZM34.1913 26.8113C34.1913 25.5939 35.2 24.5852 36.4174 24.5852C37.6696 24.5852 38.6435 25.5591 38.6435 26.8113C38.6435 28.0287 37.6348 29.0374 36.4174 29.0374C35.2 29.0374 34.1913 28.0287 34.1913 26.8113ZM37.4956 26.7417C37.4956 27.3372 37.0129 27.82 36.4174 27.82C35.8219 27.82 35.3391 27.3372 35.3391 26.7417C35.3391 26.1462 35.8219 25.6634 36.4174 25.6634C37.0129 25.6634 37.4956 26.1462 37.4956 26.7417Z" fill="#4D5160"/>
<path id="frame" fill-rule="evenodd" clip-rule="evenodd" d="M40.3656 27.9785C40.4328 28.3529 40.7893 28.603 41.1642 28.5389L42.2051 28.3609C42.7396 28.2694 43.1304 27.8061 43.1304 27.2637V25.0374C43.1304 24.1678 42.6435 23.3678 41.8783 22.9852L41.1478 22.6373C39.1304 21.6287 36.9391 20.9678 34.713 20.6547L29.7951 19.9946C29.6211 19.9713 29.4554 19.9064 29.3093 19.809C24.9605 16.9081 19.4634 16.1975 14.5044 17.9417L10.2261 19.4373L10.2258 19.4374L10.2258 19.4374C8.65652 19.9849 7.63611 20.3408 6.96665 20.5827L6.95151 19.646H7.26957C7.65377 19.646 7.96522 19.3346 7.96522 18.9504C7.96522 18.5662 7.65377 18.2547 7.26957 18.2547H5.25217C4.86797 18.2547 4.55652 18.5662 4.55652 18.9504C4.55652 19.3346 4.86797 19.646 5.25217 19.646H5.56012L5.56021 19.6596L5.57988 20.8769C5.58157 20.9817 5.60636 21.0807 5.64932 21.1692C5.63006 21.1934 5.61595 21.2181 5.6 21.246C5.04348 22.1852 4.83479 23.333 5.0087 24.4113L5.48538 27.4037C5.57145 27.9441 6.03744 28.3417 6.58456 28.3417H8.27827C8.66246 28.3417 8.97392 28.0302 8.97392 27.646C8.97392 27.2619 8.66246 26.9504 8.27827 26.9504H7.24718C7.00003 26.9504 6.78996 26.7698 6.75285 26.5255L6.40001 24.2026C6.3176 23.6532 6.36535 23.0821 6.54326 22.5579C6.63445 22.2892 6.85989 22.0965 7.12701 22.0008C8.0488 21.6704 9.83102 21.044 11.6854 20.3922C12.7043 20.034 13.7451 19.6682 14.6768 19.3396L16.5274 20.825C16.841 21.0766 17.2231 21.228 17.624 21.2592L27.512 22.0293C27.9417 22.0628 28.3708 21.9565 28.7353 21.7263L29.3719 21.3242L34.5739 22.0113C36.6609 22.2895 38.6783 22.9156 40.5565 23.8547L41.287 24.2026C41.6 24.3417 41.7739 24.6547 41.7739 25.0026V26.6027C41.7739 26.8443 41.6011 27.0514 41.3634 27.0946L40.9235 27.1746C40.5477 27.2429 40.2981 27.6025 40.3656 27.9785ZM17.41 19.7581L16.2695 18.8422C20.2393 17.8294 24.4492 18.4607 27.9572 20.5721C27.8682 20.6255 27.7647 20.65 27.661 20.6419L17.6844 19.8667C17.5841 19.8589 17.4885 19.8211 17.41 19.7581ZM18.6435 26.7765H31.2348C31.619 26.7765 31.9304 27.0879 31.9304 27.4721C31.9304 27.8563 31.619 28.1678 31.2348 28.1678H18.6435C18.2593 28.1678 17.9478 27.8563 17.9478 27.4721C17.9478 27.0879 18.2593 26.7765 18.6435 26.7765ZM27.3665 25.9027C27.7375 25.9437 28.0728 25.6798 28.1203 25.3096C28.1689 24.9306 27.8975 24.5852 27.5177 24.5427L18.639 23.5492C18.3939 23.5218 18.1648 23.4137 17.9877 23.242L16.4336 21.7342C16.1559 21.4648 15.7122 21.4721 15.4434 21.7504C15.1747 22.0288 15.183 22.4724 15.462 22.7405L17.3619 24.5664C17.5388 24.7365 17.767 24.8433 18.011 24.8702L27.3665 25.9027Z" fill="#4D5160"/>
</g>
</g>
</svg>
