<svg width="24" height="24" viewBox="0 0 24 24" fill="none" xmlns="http://www.w3.org/2000/svg">
<g id="Type=Fill">
<path id="Subtract" fill-rule="evenodd" clip-rule="evenodd" d="M12 24C18.6274 24 24 18.6274 24 12C24 5.37258 18.6274 0 12 0C5.37258 0 0 5.37258 0 12C0 18.6274 5.37258 24 12 24ZM13.3906 8.96952L10.3602 12L13.3906 15.0304C13.7254 15.3652 13.7254 15.9079 13.3906 16.2426C13.0559 16.5774 12.5132 16.5774 12.1784 16.2426L8.6429 12.7071C8.25237 12.3166 8.25238 11.6834 8.6429 11.2929L12.1784 7.75734C12.5132 7.4226 13.0559 7.4226 13.3906 7.75734C13.7254 8.09207 13.7254 8.63479 13.3906 8.96952Z" fill="#0B1421"/>
</g>
</svg>
