<svg width="24" height="24" viewBox="0 0 24 24" fill="none" xmlns="http://www.w3.org/2000/svg">
<g id="Type=Two-tone">
<path id="Ellipse 1 (Stroke)" fill-rule="evenodd" clip-rule="evenodd" d="M12 24C18.6274 24 24 18.6274 24 12C24 5.37258 18.6274 0 12 0C5.37258 0 0 5.37258 0 12C0 18.6274 5.37258 24 12 24Z" fill="black" fill-opacity="0.2"/>
<g id="Frame 11">
<path id="Union" d="M10.7878 12L7.75736 15.0304C7.42263 15.3652 7.42263 15.9079 7.75736 16.2426C8.0921 16.5774 8.63481 16.5774 8.96954 16.2426L12 13.2122L15.0305 16.2426C15.3652 16.5774 15.9079 16.5774 16.2426 16.2426C16.5774 15.9079 16.5774 15.3652 16.2426 15.0304L13.2122 12L16.2426 8.96952C16.5774 8.63479 16.5774 8.09207 16.2426 7.75734C15.9079 7.4226 15.3652 7.4226 15.0305 7.75734L12 10.7878L8.96955 7.75734C8.63481 7.4226 8.0921 7.4226 7.75736 7.75734C7.42263 8.09207 7.42263 8.63479 7.75736 8.96952L10.7878 12Z" fill="#0B1421"/>
</g>
</g>
</svg>
