<svg width="24" height="24" viewBox="0 0 24 24" fill="none" xmlns="http://www.w3.org/2000/svg">
<g id="Type=Fill">
<path id="close" fill-rule="evenodd" clip-rule="evenodd" d="M24 12C24 18.6274 18.6274 24 12 24C5.37258 24 0 18.6274 0 12C0 5.37258 5.37258 0 12 0C18.6274 0 24 5.37258 24 12ZM7.75736 15.0305L10.7878 12L7.75736 8.96954C7.42263 8.6348 7.42263 8.09209 7.75736 7.75735C8.0921 7.42262 8.63481 7.42262 8.96954 7.75735L12 10.7878L15.0305 7.75735C15.3652 7.42262 15.9079 7.42262 16.2426 7.75735C16.5774 8.09209 16.5774 8.6348 16.2426 8.96954L13.2122 12L16.2426 15.0305C16.5774 15.3652 16.5774 15.9079 16.2426 16.2426C15.9079 16.5774 15.3652 16.5774 15.0305 16.2426L12 13.2122L8.96954 16.2426C8.63481 16.5774 8.09209 16.5774 7.75736 16.2426C7.42262 15.9079 7.42262 15.3652 7.75736 15.0305Z" fill="#0B1421"/>
</g>
</svg>
