<svg width="96" height="96" viewBox="0 0 96 96" fill="none" xmlns="http://www.w3.org/2000/svg">
<g clip-path="url(#clip0)">
<path fill-rule="evenodd" clip-rule="evenodd" d="M72.426 39.3472C72.7212 39.9748 73.5416 40.134 74.0501 39.6623L77.6728 36.3021C77.8762 36.1135 77.9944 35.8505 78.0004 35.5731L78.0358 33.9486C78.0498 33.3007 78.6542 32.8284 79.2863 32.9714L83.7123 33.9725C83.9458 34.0253 84.1116 34.2328 84.1116 34.4722V35.9267C84.1116 36.2097 83.8822 36.4391 83.5993 36.4391H80.7439C80.1779 36.4391 79.7192 36.8978 79.7192 37.4638V38.2946C79.7192 38.8606 80.1779 39.3193 80.7439 39.3193H84.5437C85.9118 39.3193 86.9919 38.2392 86.9919 36.8711V33.7748C86.9919 32.6227 86.1998 31.6866 85.0477 31.3986L78.135 29.8144C77.4149 29.6704 76.6229 29.8144 76.0468 30.3184C75.4707 30.7505 75.1107 31.4706 75.1107 32.1906L75.0465 34.5654C75.0415 34.7513 74.9654 34.9282 74.8339 35.0597C74.478 35.4156 73.8767 35.3106 73.6625 34.8551L67.838 22.4697C66.6139 19.8054 63.9496 18.1492 61.0693 18.1492H33.9226C31.0423 18.1492 28.378 19.8774 27.1539 22.4697L21.3294 34.8551C21.1152 35.3106 20.5139 35.4156 20.158 35.0597C20.0265 34.9282 19.9504 34.7513 19.9454 34.5654L19.8812 32.1906C19.8812 31.3986 19.5212 30.7505 18.9451 30.2464C18.369 29.7424 17.577 29.5984 16.8569 29.7424L9.94419 31.3265C8.79208 31.5426 8 32.5507 8 33.7028V36.8711C8 38.2392 9.08011 39.3193 10.4482 39.3193H14.248C14.8139 39.3193 15.2727 38.8606 15.2727 38.2946V37.4638C15.2727 36.8978 14.814 36.4391 14.248 36.4391H11.3926C11.1097 36.4391 10.8803 36.2097 10.8803 35.9267V34.4722C10.8803 34.2328 11.0461 34.0253 11.2796 33.9725L15.7056 32.9714C16.3377 32.8284 16.9421 33.3007 16.9562 33.9486L16.992 35.5957C16.9977 35.8596 17.1051 36.1112 17.2918 36.298L20.5782 39.5843C21.0801 40.0862 21.9279 39.9382 22.23 39.2959L29.6022 23.6218C30.3942 21.9656 31.9784 20.9575 33.7786 20.9575H60.8533C62.6535 20.9575 64.3096 22.0376 65.0297 23.6218L72.426 39.3472ZM66.9573 36.367H26.5945C26.0285 36.367 25.5697 36.8258 25.5697 37.3917V38.2226C25.5697 38.7886 26.0285 39.2473 26.5945 39.2473H66.9573C67.5232 39.2473 67.982 38.7886 67.982 38.2226V37.3917C67.982 36.8258 67.5232 36.367 66.9573 36.367ZM24.6337 73.3068H16.1368C13.9046 73.3068 12.1044 71.5066 12.1044 69.2743V67.3468C12.1044 66.7808 12.5632 66.3221 13.1291 66.3221H13.96C14.5259 66.3221 14.9847 66.7808 14.9847 67.3468V69.2743C14.9847 69.9224 15.4887 70.4265 16.1368 70.4265H24.6337C25.2817 70.4265 25.7858 69.9224 25.7858 69.2743V67.3468C25.7858 66.7808 26.2445 66.3221 26.8105 66.3221H27.6413C28.2073 66.3221 28.6661 66.7808 28.6661 67.3468V69.2743C28.5941 71.5066 26.7939 73.3068 24.6337 73.3068ZM20.4739 56.1008H30.2502C32.1224 56.1008 33.6346 54.5886 33.5626 52.7164V51.4203C33.5626 49.8361 32.4825 48.468 30.9703 48.108L22.9775 46.1638C21.9694 45.9478 20.8893 46.1638 20.0972 46.8119C19.3051 47.4599 18.8011 48.396 18.8011 49.4761V49.7475C18.8011 50.3135 19.2599 50.7722 19.8258 50.7722H20.6567C21.2226 50.7722 21.6814 50.3135 21.6814 49.7475V49.4761C21.6814 49.2601 21.8254 49.1161 21.8974 49.0441C21.9195 49.0441 21.9482 49.0306 21.9838 49.0139L21.9838 49.0139C22.0644 48.9761 22.1796 48.9221 22.3294 48.9721L30.3222 50.9163C30.6103 50.9883 30.7543 51.2043 30.7543 51.4203V52.7164C30.7543 53.0045 30.5383 53.2205 30.2502 53.2205H20.4739C19.9079 53.2205 19.4492 53.6793 19.4492 54.2452V55.0761C19.4492 55.642 19.9079 56.1008 20.4739 56.1008ZM14.1538 64.6659H73.5265H80.0471C81.1789 64.6659 82.0954 63.7483 82.0954 62.6165V49.2563C82.0954 46.5201 81.0873 43.9998 79.1431 42.0556L77.2754 40.1879C76.8753 39.7878 76.2264 39.7878 75.8263 40.1879L75.2592 40.755C74.8591 41.1552 74.8591 41.804 75.2592 42.2041L77.1269 44.0718C78.5671 45.44 79.2871 47.2401 79.2871 49.1843V60.7609C79.2871 61.3268 78.8283 61.7856 78.2624 61.7856H15.9374C15.3715 61.7856 14.9127 61.3268 14.9127 60.7609V49.1123C14.9127 47.1681 15.7048 45.368 17.0729 43.9998L18.9406 42.1321C19.3408 41.732 19.3408 41.0831 18.9406 40.683L18.3735 40.1159C17.9734 39.7158 17.3246 39.7158 16.9244 40.1159L15.0567 41.9836C13.1845 43.9278 12.1044 46.4481 12.1044 49.1843V62.6165C12.1044 63.7483 13.022 64.6659 14.1538 64.6659ZM78.567 73.3068H70.0702C67.8379 73.3068 66.0378 71.5066 66.0378 69.2743V67.3468C66.0378 66.7808 66.4965 66.3221 67.0625 66.3221H67.8933C68.4593 66.3221 68.9181 66.7808 68.9181 67.3468V69.2743C68.9181 69.9224 69.4221 70.4265 70.0702 70.4265H78.567C79.2151 70.4265 79.7191 69.9224 79.7191 69.2743V67.3468C79.7191 66.7808 80.1779 66.3221 80.7438 66.3221H81.5747C82.1406 66.3221 82.5994 66.7808 82.5994 67.3468V69.2743C82.5274 71.5066 80.7272 73.3068 78.567 73.3068ZM60.9253 52.4247C60.9253 54.2968 62.4374 55.809 64.3096 55.809H74.014C74.5799 55.809 75.0387 55.3502 75.0387 54.7843V53.9534C75.0387 53.3875 74.5799 52.9287 74.014 52.9287H64.2376C63.9496 52.9287 63.7336 52.7127 63.7336 52.4247V51.1285C63.7336 50.9125 63.9496 50.6965 64.1656 50.6245L72.1584 48.6803C72.3744 48.6083 72.5184 48.6803 72.5905 48.7523C72.6625 48.8243 72.8065 48.9683 72.8065 49.1843V49.4558C72.8065 50.0217 73.2653 50.4805 73.8312 50.4805H74.6621C75.228 50.4805 75.6868 50.0217 75.6868 49.4558V49.1843C75.6868 48.1762 75.1827 47.1681 74.3906 46.5201C73.5986 45.872 72.5184 45.656 71.5103 45.872L63.5176 47.8162C62.0054 48.1762 60.9253 49.5444 60.9253 51.1285V52.4247ZM64.2368 30.1069C63.7208 30.3428 63.1114 30.1145 62.8773 29.5977L61.5734 26.7181C61.1413 25.854 60.2772 25.2779 59.2691 25.2779H34.5873C34.0213 25.2779 33.5626 24.8192 33.5626 24.2532V23.4224C33.5626 22.8564 34.0213 22.3976 34.5873 22.3976H59.1971C61.2853 22.3976 63.2295 23.6218 64.0936 25.566L65.4006 28.4522C65.6335 28.9664 65.4066 29.5722 64.8932 29.8069L64.2368 30.1069ZM84.095 78.1197H83.2642C82.6982 78.1197 82.2394 77.6609 82.2394 77.095V76.2872C82.2394 75.7213 82.6982 75.2625 83.2642 75.2625H84.095C84.6609 75.2625 85.1197 75.7213 85.1197 76.2872V77.095C85.1197 77.6609 84.6609 78.1197 84.095 78.1197ZM76.8223 75.2625H10.4649C9.89892 75.2625 9.44015 75.7213 9.44015 76.2872V77.095C9.44015 77.6609 9.89893 78.1197 10.4649 78.1197H76.8223C77.3882 78.1197 77.847 77.6609 77.847 77.095V76.2872C77.847 75.7213 77.3882 75.2625 76.8223 75.2625ZM57.4523 60.2734C58.0183 60.2734 58.4862 59.811 58.3893 59.2534C57.9122 56.5064 55.5434 54.3688 52.6445 54.3688H41.9874C39.0884 54.3688 36.7197 56.5064 36.2425 59.2534C36.1457 59.811 36.6136 60.2734 37.1795 60.2734H38.0104C38.5763 60.2734 39.0181 59.8026 39.1993 59.2664C39.5939 58.0984 40.6618 57.2491 41.9874 57.2491H52.6445C53.97 57.2491 55.038 58.0984 55.4326 59.2664C55.6137 59.8026 56.0555 60.2734 56.6215 60.2734H57.4523Z" fill="#4D5160"/>
</g>
<defs>
<clipPath id="clip0">
<rect width="80" height="62" fill="white" transform="translate(8 18)"/>
</clipPath>
</defs>
</svg>
