<svg width="79" height="60" viewBox="0 0 79 60" fill="none" xmlns="http://www.w3.org/2000/svg">
<path fill-rule="evenodd" clip-rule="evenodd" d="M64.4326 21.2001C64.7278 21.8278 65.5483 21.987 66.0569 21.5153L69.68 18.1548C69.8834 17.9661 70.0016 17.703 70.0076 17.4257L70.0429 15.801C70.057 15.153 70.6615 14.6807 71.2936 14.8237L75.7201 15.8249C75.9536 15.8777 76.1194 16.0852 76.1194 16.3247V17.7793C76.1194 18.0623 75.89 18.2917 75.607 18.2917H72.7513C72.1854 18.2917 71.7265 18.7505 71.7265 19.3165V20.1475C71.7265 20.7135 72.1854 21.1723 72.7513 21.1723H76.5515C77.9198 21.1723 79 20.0921 79 18.7238V15.6272C79 14.4749 78.2078 13.5387 77.0556 13.2507L70.1422 11.6664C69.4221 11.5223 68.6299 11.6664 68.0538 12.1705C67.4777 12.6025 67.1176 13.3227 67.1176 14.0428L67.0534 16.4179C67.0484 16.6038 66.9723 16.7807 66.8408 16.9122C66.4848 17.2682 65.8835 17.1631 65.6692 16.7075L59.8441 4.32087C58.6199 1.65634 55.9553 0 53.0747 0H25.9253C23.0447 0 20.3801 1.72835 19.1559 4.32087L13.3308 16.7075C13.1166 17.1631 12.5152 17.2682 12.1592 16.9122C12.0277 16.7807 11.9516 16.6038 11.9466 16.4179L11.8824 14.0428C11.8824 13.2507 11.5223 12.6026 10.9462 12.0984C10.3701 11.5943 9.57794 11.4503 8.85779 11.5943L1.94439 13.1787C0.792161 13.3947 0 14.4029 0 15.5551V18.7238C0 20.0921 1.08022 21.1723 2.4485 21.1723H6.24866C6.81465 21.1723 7.27347 20.7135 7.27347 20.1475V19.3165C7.27347 18.7505 6.81465 18.2917 6.24866 18.2917H3.39299C3.11 18.2917 2.88058 18.0623 2.88058 17.7793V16.3247C2.88058 16.0852 3.04641 15.8777 3.27995 15.8249L7.70641 14.8237C8.33853 14.6807 8.94298 15.153 8.95707 15.801L8.99288 17.4482C8.99862 17.7122 9.10606 17.9639 9.2928 18.1506L12.5795 21.4373C13.0814 21.9392 13.9294 21.7912 14.2315 21.1488L21.6044 5.47311C22.3965 3.81677 23.9809 2.80857 25.7812 2.80857H52.8587C54.6591 2.80857 56.3154 3.88879 57.0356 5.47311L64.4326 21.2001ZM58.9633 18.2197H18.5964C18.0304 18.2197 17.5716 18.6785 17.5716 19.2445V20.0754C17.5716 20.6414 18.0304 21.1003 18.5964 21.1003H58.9633C59.5293 21.1003 59.9881 20.6414 59.9881 20.0754V19.2445C59.9881 18.6785 59.5293 18.2197 58.9633 18.2197ZM16.6354 55.1632H8.13764C5.90519 55.1632 4.10482 53.3628 4.10482 51.1304V49.2026C4.10482 48.6366 4.56365 48.1778 5.12964 48.1778H5.96059C6.52658 48.1778 6.98541 48.6366 6.98541 49.2026V51.1304C6.98541 51.7785 7.48951 52.2826 8.13764 52.2826H16.6354C17.2835 52.2826 17.7876 51.7785 17.7876 51.1304V49.2026C17.7876 48.6366 18.2464 48.1778 18.8124 48.1778H19.6434C20.2094 48.1778 20.6682 48.6366 20.6682 49.2026V51.1304C20.5962 53.3628 18.7958 55.1632 16.6354 55.1632ZM12.4751 37.9554H22.2525C24.1249 37.9554 25.6372 36.4431 25.5652 34.5708V33.2745C25.5652 31.6902 24.485 30.3219 22.9727 29.9618L14.979 28.0174C13.9708 27.8014 12.8906 28.0174 12.0985 28.6656C11.3063 29.3137 10.8022 30.2499 10.8022 31.3301V31.6015C10.8022 32.1675 11.261 32.6264 11.827 32.6264H12.658C13.224 32.6264 13.6828 32.1675 13.6828 31.6015V31.3301C13.6828 31.1141 13.8268 30.97 13.8988 30.898C13.9209 30.898 13.9497 30.8845 13.9852 30.8678L13.9852 30.8678C14.0658 30.8301 14.181 30.776 14.3309 30.826L22.3245 32.7704C22.6126 32.8424 22.7566 33.0584 22.7566 33.2745V34.5708C22.7566 34.8588 22.5406 35.0749 22.2525 35.0749H12.4751C11.9092 35.0749 11.4503 35.5337 11.4503 36.0997V36.9306C11.4503 37.4966 11.9092 37.9554 12.4751 37.9554ZM6.15445 46.5214H65.5333H72.0545C73.1864 46.5214 74.103 45.6038 74.103 44.4718V31.1103C74.103 28.3737 73.0948 25.8532 71.1504 23.9088L69.2825 22.041C68.8823 21.6408 68.2334 21.6408 67.8332 22.041L67.2661 22.6081C66.8659 23.0083 66.8659 23.6572 67.2661 24.0574L69.134 25.9252C70.5743 27.2935 71.2944 29.0939 71.2944 31.0383V42.616C71.2944 43.182 70.8356 43.6408 70.2696 43.6408H7.93821C7.37222 43.6408 6.91339 43.182 6.91339 42.616V30.9663C6.91339 29.0219 7.70555 27.2215 9.07383 25.8532L10.9417 23.9854C11.3419 23.5851 11.3419 22.9363 10.9417 22.5361L10.3746 21.969C9.97438 21.5687 9.32551 21.5687 8.92529 21.969L7.05742 23.8368C5.18504 25.7812 4.10482 28.3017 4.10482 31.0383V44.4718C4.10482 45.6038 5.02247 46.5214 6.15445 46.5214ZM70.5743 55.1632H62.0765C59.8441 55.1632 58.0437 53.3628 58.0437 51.1304V49.2026C58.0437 48.6366 58.5025 48.1778 59.0685 48.1778H59.8995C60.4655 48.1778 60.9243 48.6366 60.9243 49.2026V51.1304C60.9243 51.7785 61.4284 52.2826 62.0765 52.2826H70.5743C71.2224 52.2826 71.7265 51.7785 71.7265 51.1304V49.2026C71.7265 48.6366 72.1853 48.1778 72.7513 48.1778H73.5823C74.1483 48.1778 74.6071 48.6366 74.6071 49.2026V51.1304C74.5351 53.3628 72.7347 55.1632 70.5743 55.1632ZM52.9307 34.2789C52.9307 36.1513 54.443 37.6636 56.3154 37.6636H66.0208C66.5868 37.6636 67.0456 37.2048 67.0456 36.6388V35.8079C67.0456 35.2419 66.5868 34.783 66.0208 34.783H56.2434C55.9553 34.783 55.7393 34.567 55.7393 34.2789V32.9827C55.7393 32.7666 55.9553 32.5506 56.1714 32.4786L64.165 30.5342C64.381 30.4622 64.5251 30.5342 64.5971 30.6062C64.6691 30.6782 64.8131 30.8222 64.8131 31.0383V31.3097C64.8131 31.8757 65.272 32.3346 65.8379 32.3346H66.6689C67.2349 32.3346 67.6937 31.8757 67.6937 31.3097V31.0383C67.6937 30.0301 67.1896 29.0219 66.3974 28.3738C65.6053 27.7256 64.5251 27.5096 63.5169 27.7256L55.5232 29.67C54.0109 30.0301 52.9307 31.3984 52.9307 32.9827V34.2789ZM56.2426 11.9589C55.7265 12.1948 55.117 11.9665 54.883 11.4496L53.5789 8.56972C53.1468 7.70555 52.2826 7.12943 51.2744 7.12943H26.59C26.024 7.12943 25.5652 6.67061 25.5652 6.10462V5.27366C25.5652 4.70768 26.024 4.24885 26.59 4.24885H51.2024C53.2908 4.24885 55.2352 5.4731 56.0994 7.41749L57.4065 10.304C57.6394 10.8183 57.4125 11.4241 56.899 11.6588L56.2426 11.9589ZM76.1028 59.9766H75.2719C74.7059 59.9766 74.2471 59.5178 74.2471 58.9518V58.144C74.2471 57.578 74.7059 57.1192 75.2719 57.1192H76.1028C76.6688 57.1192 77.1276 57.578 77.1276 58.144V58.9518C77.1276 59.5178 76.6688 59.9766 76.1028 59.9766ZM68.8293 57.1192H2.46511C1.89912 57.1192 1.44029 57.578 1.44029 58.144V58.9518C1.44029 59.5178 1.89912 59.9766 2.46511 59.9766H68.8293C69.3953 59.9766 69.8542 59.5178 69.8542 58.9518V58.144C69.8542 57.578 69.3953 57.1192 68.8293 57.1192ZM49.4574 42.1285C50.0234 42.1285 50.4914 41.666 50.3945 41.1084C49.9173 38.3611 47.5483 36.2233 44.649 36.2233H33.9909C31.0916 36.2233 28.7226 38.3611 28.2454 41.1084C28.1485 41.666 28.6165 42.1285 29.1825 42.1285H30.0135C30.5794 42.1285 31.0213 41.6576 31.2025 41.1214C31.5971 39.9533 32.6652 39.1039 33.9909 39.1039H44.649C45.9748 39.1039 47.0428 39.9533 47.4374 41.1214C47.6186 41.6576 48.0605 42.1285 48.6264 42.1285H49.4574Z" fill="#4D5160"/>
</svg>
