<svg width="48" height="49" viewBox="0 0 48 49" fill="none" xmlns="http://www.w3.org/2000/svg">
<g id="front-Red">
<g id="front-Red_2">
<g id="icon_sedan" clip-path="url(#clip0)">
<path id="color" d="M43.5679 17.8764L40.1116 17.0804C39.7876 17.008 39.4995 17.2613 39.4995 17.587L39.4635 19.2152L38.0954 20.5902L34.531 12.9916C34.027 11.9423 32.9829 11.2548 31.7948 11.2548H24.9541H18.2574C17.1053 11.2548 16.0252 11.9423 15.5211 12.9916L11.9568 20.5902L10.5886 19.2152L10.5526 17.587C10.5526 17.2613 10.2646 17.008 9.94058 17.0804L6.48424 17.8764C6.26821 17.9126 6.0882 18.1297 6.0882 18.383V19.9389C6.0882 20.2284 6.30422 20.4455 6.59225 20.4455H9.00449L10.5526 21.8928L9.40053 23.0507C8.57244 23.8829 8.1404 24.9684 8.1404 26.1263V32.1936C8.1404 32.7595 8.59918 33.2183 9.16511 33.2183H19.1409C19.7068 33.2183 20.1656 32.7595 20.1656 32.1936V31.7347V31.6986C20.1656 30.4683 21.1377 29.4914 22.3618 29.4914H27.6904C28.9145 29.4914 29.8866 30.4683 29.8866 31.6986V31.7347V32.1936C29.8866 32.7595 30.3454 33.2183 30.9113 33.2183H40.7431C41.309 33.2183 41.7678 32.7595 41.7678 32.1936V26.1625C41.7678 25.0046 41.2997 23.8829 40.5076 23.0869L39.5355 22.1099L41.0837 20.4816H43.4959C43.784 20.4816 44 20.2645 44 19.9751V18.383C43.964 18.1297 43.82 17.9126 43.5679 17.8764ZM17.5013 27.7545C17.5013 28.2973 17.0693 28.7315 16.5292 28.7315H11.5607V26.1263C11.5607 25.475 12.1728 25.0046 12.7849 25.1493L16.7813 26.1263C17.2133 26.2348 17.5373 26.6329 17.5373 27.1032V27.7545H17.5013ZM14.8371 20.4455L16.5292 16.5014L17.3933 14.5837C17.7174 13.86 18.4374 13.4258 19.1935 13.4258H30.9307C31.7228 13.4258 32.4068 13.8962 32.7309 14.5837L33.5949 16.5014L35.2871 20.4455H14.8371ZM38.5274 28.7677H33.5229C32.9829 28.7677 32.5508 28.3335 32.5508 27.7907V27.1394C32.5508 26.669 32.8749 26.271 33.3069 26.1625L37.3033 25.1855C37.9154 25.0408 38.5274 25.5112 38.5274 26.1625V28.7677Z" fill="#EF5F54"/>
<path id="Union" fill-rule="evenodd" clip-rule="evenodd" d="M35.9144 19.1336C36.2092 19.7635 37.0325 19.923 37.5412 19.4488L38.6835 18.384C38.883 18.198 38.9988 17.9393 39.0047 17.6667C39.0186 17.0273 39.6154 16.5614 40.239 16.7032L41.657 17.0255C41.8903 17.0786 42.0558 17.2859 42.0558 17.5251V17.7979C42.0558 18.0809 41.8264 18.3102 41.5435 18.3102H40.5833C40.1836 18.3102 39.8596 18.6342 39.8596 19.0339C39.8596 19.4336 40.1836 19.7576 40.5833 19.7576H42.2718C42.9559 19.7576 43.4959 19.2148 43.4959 18.5274V16.9715C43.4959 16.3925 43.0999 15.9221 42.5239 15.7774L39.0675 14.9814C38.7075 14.909 38.3114 14.9814 38.0234 15.2346C37.7354 15.4517 37.5554 15.8136 37.5554 16.1754L37.5232 17.37C37.5207 17.4626 37.483 17.5508 37.4176 17.6164C37.2397 17.7953 36.9381 17.7427 36.8312 17.5142L33.919 11.2906C33.3069 9.95184 31.9748 9.11961 30.5347 9.11961H16.9613C15.5212 9.11961 14.189 9.98802 13.577 11.2906L10.6648 17.5142C10.5578 17.7427 10.2563 17.7953 10.0783 17.6164C10.013 17.5508 9.97521 17.4626 9.97272 17.37L9.94059 16.1754C9.94059 15.7774 9.76058 15.4517 9.47255 15.1985C9.18452 14.9452 8.78848 14.8728 8.42844 14.9452L4.9721 15.7412C4.39604 15.8498 4 16.3563 4 16.9353V18.5274C4 19.2148 4.54005 19.7576 5.22412 19.7576H6.91269C7.31236 19.7576 7.63636 19.4336 7.63636 19.0339C7.63636 18.6342 7.31237 18.3102 6.91269 18.3102H5.9525C5.66953 18.3102 5.44014 18.0809 5.44014 17.7979V17.5251C5.44014 17.2859 5.60567 17.0786 5.83893 17.0255L7.24065 16.7069C7.8727 16.5632 8.47757 17.0354 8.49159 17.6834C8.49728 17.9464 8.60396 18.1972 8.78951 18.3837L9.77124 19.3703C10.2732 19.8748 11.124 19.7265 11.4257 19.0819L14.8011 11.8696C15.1971 11.0373 15.9892 10.5308 16.8893 10.5308H30.4266C31.3267 10.5308 32.1548 11.0735 32.5149 11.8696L35.9144 19.1336ZM33.2673 18.2744H13.5085C13.1089 18.2744 12.7849 18.5984 12.7849 18.9981C12.7849 19.3978 13.1089 19.7218 13.5085 19.7218H33.2673C33.667 19.7218 33.991 19.3978 33.991 18.9981C33.991 18.5984 33.667 18.2744 33.2673 18.2744ZM12.3168 36.8366H8.0684C6.95229 36.8366 6.0522 35.932 6.0522 34.8104V34.0469C6.0522 33.6492 6.37459 33.3268 6.77227 33.3268C7.16996 33.3268 7.49235 33.6492 7.49235 34.0469V34.8104C7.49235 35.136 7.74437 35.3893 8.0684 35.3893H12.3168C12.6409 35.3893 12.8929 35.136 12.8929 34.8104V34.0469C12.8929 33.6492 13.2153 33.3268 13.613 33.3268C14.0106 33.3268 14.333 33.6492 14.333 34.0469V34.8104C14.297 35.932 13.3969 36.8366 12.3168 36.8366ZM10.4483 28.1906H15.1251C16.0612 28.1906 16.8173 27.4308 16.7813 26.49V25.8387C16.7813 25.0427 16.2412 24.3552 15.4852 24.1743L11.4888 23.1973C10.9847 23.0887 10.4447 23.1973 10.0486 23.523C9.65257 23.8486 9.40055 24.319 9.40055 24.8617C9.40055 25.2214 9.69215 25.513 10.0519 25.513H10.1894C10.5491 25.513 10.8407 25.2214 10.8407 24.8617C10.8407 24.7532 10.9127 24.6808 10.9487 24.6446C10.9597 24.6446 10.9741 24.6379 10.9919 24.6295C11.0322 24.6105 11.0898 24.5834 11.1647 24.6085L15.1611 25.5854C15.3051 25.6216 15.3771 25.7301 15.3771 25.8387V26.49C15.3771 26.6347 15.2691 26.7433 15.1251 26.7433H10.4483C10.0486 26.7433 9.72458 27.0673 9.72458 27.467C9.72458 27.8666 10.0486 28.1906 10.4483 28.1906ZM8.10162 32.4946H36.7633H38.9984C40.1302 32.4946 41.0477 31.577 41.0477 30.4452V24.7513C41.0477 23.3763 40.5437 22.1099 39.5716 21.1329L38.782 20.3394C38.5026 20.0587 38.0482 20.0587 37.7689 20.3394C37.4915 20.6182 37.4915 21.0687 37.7689 21.3475L38.5635 22.1461C39.2835 22.8336 39.6436 23.7382 39.6436 24.7151V30.0225C39.6436 30.5885 39.1848 31.0472 38.6189 31.0472H8.48105C7.91512 31.0472 7.45634 30.5885 7.45634 30.0225V24.6789C7.45634 23.702 7.85238 22.7974 8.53645 22.1099L9.33104 21.3113C9.60844 21.0326 9.60844 20.582 9.33104 20.3032C9.05168 20.0225 8.59727 20.0225 8.31792 20.3032L7.52835 21.0968C6.59226 22.0737 6.0522 23.3401 6.0522 24.7151V30.4452C6.0522 31.577 6.96976 32.4946 8.10162 32.4946ZM39.2835 36.8366H35.0351C33.919 36.8366 33.0189 35.932 33.0189 34.8104V34.0469C33.0189 33.6492 33.3413 33.3268 33.739 33.3268C34.1366 33.3268 34.459 33.6492 34.459 34.0469V34.8104C34.459 35.136 34.7111 35.3893 35.0351 35.3893H39.2835C39.6075 35.3893 39.8596 35.136 39.8596 34.8104V34.0469C39.8596 33.6492 40.182 33.3268 40.5796 33.3268C40.9773 33.3268 41.2997 33.6492 41.2997 34.0469V34.8104C41.2637 35.932 40.3636 36.8366 39.2835 36.8366ZM30.4626 26.3434C30.4626 27.2842 31.2187 28.044 32.1548 28.044H36.7957C37.1954 28.044 37.5194 27.72 37.5194 27.3203C37.5194 26.9207 37.1954 26.5967 36.7957 26.5967H32.1188C31.9748 26.5967 31.8668 26.4881 31.8668 26.3434V25.6921C31.8668 25.5835 31.9748 25.475 32.0828 25.4388L36.0792 24.4618C36.1872 24.4257 36.2592 24.4618 36.2952 24.498C36.3312 24.5342 36.4032 24.6066 36.4032 24.7151C36.4032 25.0748 36.6948 25.3664 37.0545 25.3664H37.1921C37.5518 25.3664 37.8434 25.0748 37.8434 24.7151C37.8434 24.2085 37.5914 23.702 37.1953 23.3763C36.7993 23.0507 36.2592 22.9421 35.7552 23.0507L31.7588 24.0276C31.0027 24.2085 30.4626 24.896 30.4626 25.6921V26.3434ZM32.2855 15.052C31.9357 15.2127 31.522 15.0577 31.3638 14.7068L30.7867 13.4258C30.5707 12.9916 30.1386 12.7022 29.6346 12.7022H17.505C17.1053 12.7022 16.7813 12.3782 16.7813 11.9785C16.7813 11.5788 17.1053 11.2548 17.505 11.2548H29.5986C30.6427 11.2548 31.6148 11.8699 32.0468 12.8469L32.6281 14.1371C32.7846 14.4844 32.6316 14.8929 32.2855 15.052ZM41.8398 37.8194C42.2362 37.8194 42.5599 38.1408 42.5599 38.5373C42.5599 38.9337 42.2362 39.2551 41.8398 39.2551C41.4433 39.2551 41.1197 38.9337 41.1197 38.5373C41.1197 38.1408 41.4433 37.8194 41.8398 37.8194ZM38.2056 37.8194H5.43793C5.04147 37.8194 4.72007 38.1408 4.72007 38.5373C4.72007 38.9337 5.04147 39.2551 5.43793 39.2551H38.2056C38.6021 39.2551 38.9235 38.9337 38.9235 38.5373C38.9235 38.1408 38.6021 37.8194 38.2056 37.8194ZM28.5184 30.2874C28.9161 30.2874 29.2473 29.9604 29.1528 29.574C28.8393 28.2917 27.7006 27.3203 26.3222 27.3203H20.9937C19.6153 27.3203 18.4766 28.2917 18.1631 29.574C18.0686 29.9604 18.3998 30.2874 18.7975 30.2874C19.1952 30.2874 19.5021 29.9485 19.6777 29.5917C19.9174 29.1047 20.4047 28.7677 20.9937 28.7677H26.3222C26.9112 28.7677 27.3985 29.1047 27.6382 29.5917C27.8138 29.9485 28.1208 30.2874 28.5184 30.2874Z" fill="#4D5160"/>
</g>
</g>
</g>
<defs>
<clipPath id="clip0">
<rect width="40" height="31.155" fill="white" transform="translate(4 9.045)"/>
</clipPath>
</defs>
</svg>
