<svg width="48" height="49" viewBox="0 0 48 49" fill="none" xmlns="http://www.w3.org/2000/svg">
<g id="side-default">
<g id="standard/Variant4" clip-path="url(#clip0)">
<path id="Union" fill-rule="evenodd" clip-rule="evenodd" d="M42.4841 31.5668C42.8725 31.5668 43.1874 31.8816 43.1874 32.27C43.1874 32.6585 42.8725 32.9733 42.4841 32.9733H7.50237C7.11397 32.9733 6.7991 32.6585 6.7991 32.27C6.7991 31.8816 7.11396 31.5668 7.50237 31.5668H42.4841ZM4.69977 31.6019C5.08625 31.6019 5.39955 31.9187 5.39955 32.3052C5.39955 32.6917 5.08625 33.0085 4.69977 33.0085C4.3133 33.0085 4 32.6917 4 32.3052C4 31.9187 4.3133 31.6019 4.69977 31.6019Z" fill="#4D5160"/>
<path id="wheel" fill-rule="evenodd" clip-rule="evenodd" d="M9.14331 27.7135C9.14331 30.0695 11.0327 31.9683 13.3769 31.9683C15.7212 31.9683 17.6106 30.0695 17.6106 27.7135C17.6106 25.3575 15.7212 23.4587 13.3769 23.4587C11.0327 23.4587 9.14331 25.3575 9.14331 27.7135ZM10.5429 27.7487C10.5429 26.1663 11.8374 24.9004 13.3769 24.9004C14.9165 24.9004 16.211 26.1663 16.211 27.7487C16.211 29.331 14.9514 30.5969 13.3769 30.5969C11.8025 30.5969 10.5429 29.331 10.5429 27.7487ZM11.3476 27.6432C11.3476 28.7684 12.2573 29.6827 13.3769 29.6827C14.4966 29.6827 15.4063 28.7684 15.4063 27.6432C15.4063 26.5179 14.4966 25.6037 13.3769 25.6037C12.2573 25.6037 11.3476 26.5179 11.3476 27.6432ZM12.7471 27.6783C12.7471 27.3267 13.0271 27.0454 13.3769 27.0454C13.7268 27.0454 14.0067 27.3267 14.0067 27.6783C14.0067 28.03 13.7268 28.3113 13.3769 28.3113C13.0271 28.3113 12.7471 28.03 12.7471 27.6783Z" fill="#4D5160"/>
<path id="wheel_2" fill-rule="evenodd" clip-rule="evenodd" d="M30.4865 27.7135C30.4865 30.0695 32.3758 31.9683 34.7201 31.9683C37.0643 31.9683 38.9537 30.0695 38.9537 27.7135C38.9537 25.3575 37.0643 23.4587 34.7201 23.4587C32.3758 23.4587 30.4865 25.3575 30.4865 27.7135ZM31.886 27.7487C31.886 26.1663 33.1806 24.9004 34.7201 24.9004C36.2946 24.9004 37.5542 26.1663 37.5542 27.7487C37.5542 29.331 36.2596 30.5969 34.7201 30.5969C33.1456 30.5969 31.886 29.331 31.886 27.7487ZM32.6908 27.6432C32.6908 28.7684 33.6005 29.6827 34.7201 29.6827C35.8397 29.6827 36.7494 28.7684 36.7494 27.6432C36.7494 26.5179 35.8397 25.6037 34.7201 25.6037C33.6005 25.6037 32.6908 26.5179 32.6908 27.6432ZM34.0903 27.6783C34.0903 27.3267 34.3702 27.0454 34.7201 27.0454C35.07 27.0454 35.3499 27.3267 35.3499 27.6783C35.3499 28.03 35.07 28.3113 34.7201 28.3113C34.3702 28.3113 34.0903 28.03 34.0903 27.6783Z" fill="#4D5160"/>
<path id="frame" fill-rule="evenodd" clip-rule="evenodd" d="M43.4893 26.6817C43.3565 27.6751 42.509 28.4168 41.5069 28.4168H40.3918C40.0034 28.4168 39.6885 28.1019 39.6885 27.7135C39.6885 27.3251 40.0034 27.0102 40.3918 27.0102H41.5928C41.8444 27.0102 42.0567 26.8234 42.0888 26.5739L42.1727 25.9202C42.2777 25.0411 41.6479 24.6191 41.6479 24.6191L41.6383 24.6133L39.1287 24.0565C38.4639 23.9158 37.8691 23.4939 37.4492 22.9312L37.2617 22.6651C37.037 22.3463 37.1139 21.9055 37.4334 21.6818C37.7516 21.4589 38.1901 21.5355 38.4139 21.853L38.6039 22.1225C38.8138 22.4038 39.0937 22.6148 39.4436 22.6851L40.5139 22.9226C39.8004 22.0382 38.8407 21.2677 37.8341 21.0324L30.4865 19.0984L25.623 16.6721C24.3284 15.9337 22.0542 15.4765 19.57 15.4765H15.0564C13.5869 15.4765 11.4526 17.0237 10.193 18.5006C9.70315 19.0984 9.10834 19.5907 8.47854 19.9423L6.27425 21.1731C5.74942 21.4544 5.43452 22.0522 5.43452 22.6499V25.0059C5.43452 25.8432 6.44883 26.6568 7.4703 26.9211C7.82649 27.0133 8.12866 27.3085 8.12866 27.6764V27.7483C8.12866 28.1055 7.81913 28.384 7.46387 28.3465C5.74942 28.0651 4.03497 26.6938 4.03497 25.0059V22.6499C4.03497 21.5247 4.62978 20.505 5.60947 19.9423L7.81376 18.7116C8.3036 18.4303 8.75845 18.0435 9.14333 17.5864C10.6129 15.8282 13.0971 14.07 15.0564 14.07H19.57C20.8646 14.07 24.1185 14.2107 26.3228 15.4414L31.0463 17.7622L38.184 19.6259C40.1434 20.1182 41.7878 21.9115 42.5926 23.529C43.0824 23.951 43.7122 24.7949 43.5723 26.0608L43.4893 26.6817ZM17.5406 20.0127C17.5406 20.3991 17.2273 20.7159 16.8409 20.7159C16.4544 20.7159 16.1411 20.3991 16.1411 20.0127C16.1411 19.6262 16.4544 19.3094 16.8409 19.3094C17.2273 19.3094 17.5406 19.6262 17.5406 20.0127ZM14.7415 20.0127C14.7415 20.4011 14.4267 20.7159 14.0383 20.7159L13.342 20.7159H12.5437C12.2925 20.7159 12.0508 20.6194 11.8687 20.4463L11.3267 19.931C11.0637 19.681 11.0422 19.269 11.2777 18.9929C12.4673 17.5512 14.5316 16.1095 16.1761 16.1095H19.605C20.6546 16.1095 23.3138 16.215 25.0982 17.2347L28.4929 18.9122C28.9444 19.1352 29.1437 19.6715 28.9476 20.1353C28.7988 20.4872 28.4537 20.7159 28.0716 20.7159H19.9934C19.6049 20.7159 19.2901 20.4011 19.2901 20.0127C19.2901 19.6243 19.6049 19.3094 19.9934 19.3094H26.1479L24.4334 18.4655C23.3838 17.8677 21.5993 17.516 19.605 17.516H16.1761C15.2314 17.516 13.9018 18.36 12.9221 19.3094L13.342 19.3094H14.0383C14.4267 19.3094 14.7415 19.6243 14.7415 20.0127ZM28.8385 27.0102H19.2586C18.8702 27.0102 18.5553 27.3251 18.5553 27.7135C18.5553 28.1019 18.8702 28.4168 19.2586 28.4168H28.8385C29.2269 28.4168 29.5418 28.1019 29.5418 27.7135C29.5418 27.3251 29.2269 27.0102 28.8385 27.0102Z" fill="#4D5160"/>
</g>
</g>
<defs>
<clipPath id="clip0">
<rect width="40" height="20.1" fill="white" transform="translate(4 14.07)"/>
</clipPath>
</defs>
</svg>
