<svg width="48" height="49" viewBox="0 0 48 49" fill="none" xmlns="http://www.w3.org/2000/svg">
<g id="front-default">
<g id="front-default_2">
<g id="icon_sedan" clip-path="url(#clip0)">
<path id="Union" fill-rule="evenodd" clip-rule="evenodd" d="M35.9144 19.1336C36.2092 19.7635 37.0325 19.923 37.5412 19.4488L38.6835 18.384C38.883 18.198 38.9988 17.9393 39.0047 17.6667C39.0186 17.0273 39.6154 16.5614 40.239 16.7032L41.657 17.0255C41.8903 17.0786 42.0558 17.2859 42.0558 17.5251V17.7979C42.0558 18.0809 41.8264 18.3103 41.5435 18.3103H40.5833C40.1836 18.3103 39.8596 18.6342 39.8596 19.0339C39.8596 19.4336 40.1836 19.7576 40.5833 19.7576H42.2718C42.9559 19.7576 43.4959 19.2148 43.4959 18.5274V16.9715C43.4959 16.3925 43.0999 15.9221 42.5239 15.7774L39.0675 14.9814C38.7075 14.909 38.3114 14.9814 38.0234 15.2346C37.7354 15.4517 37.5554 15.8136 37.5554 16.1754L37.5232 17.37C37.5207 17.4626 37.483 17.5508 37.4176 17.6164C37.2397 17.7953 36.9381 17.7427 36.8312 17.5142L33.919 11.2906C33.3069 9.95184 31.9748 9.11961 30.5347 9.11961H16.9613C15.5212 9.11961 14.189 9.98802 13.577 11.2906L10.6648 17.5142C10.5578 17.7427 10.2563 17.7953 10.0783 17.6164C10.013 17.5508 9.97521 17.4626 9.97272 17.37L9.94059 16.1754C9.94059 15.7774 9.76058 15.4517 9.47255 15.1985C9.18452 14.9452 8.78848 14.8728 8.42844 14.9452L4.9721 15.7412C4.39604 15.8498 4 16.3563 4 16.9353V18.5274C4 19.2148 4.54005 19.7576 5.22412 19.7576H6.91269C7.31236 19.7576 7.63636 19.4336 7.63636 19.0339C7.63636 18.6342 7.31236 18.3103 6.91269 18.3103H5.9525C5.66953 18.3103 5.44014 18.0809 5.44014 17.7979V17.5251C5.44014 17.2859 5.60567 17.0786 5.83893 17.0255L7.24065 16.7069C7.8727 16.5632 8.47757 17.0354 8.49159 17.6834C8.49728 17.9464 8.60396 18.1972 8.78951 18.3837L9.77124 19.3703C10.2732 19.8748 11.124 19.7265 11.4257 19.0819L14.8011 11.8696C15.1971 11.0373 15.9892 10.5308 16.8893 10.5308H30.4266C31.3267 10.5308 32.1548 11.0735 32.5149 11.8696L35.9144 19.1336ZM33.2673 18.2744H13.5085C13.1089 18.2744 12.7849 18.5984 12.7849 18.9981C12.7849 19.3978 13.1089 19.7218 13.5085 19.7218H33.2673C33.667 19.7218 33.991 19.3978 33.991 18.9981C33.991 18.5984 33.667 18.2744 33.2673 18.2744ZM12.3168 36.8366H8.0684C6.95229 36.8366 6.0522 35.932 6.0522 34.8104V34.0469C6.0522 33.6492 6.37459 33.3268 6.77227 33.3268C7.16996 33.3268 7.49235 33.6492 7.49235 34.0469V34.8104C7.49235 35.136 7.74437 35.3893 8.0684 35.3893H12.3168C12.6409 35.3893 12.8929 35.136 12.8929 34.8104V34.0469C12.8929 33.6492 13.2153 33.3268 13.613 33.3268C14.0106 33.3268 14.333 33.6492 14.333 34.0469V34.8104C14.297 35.932 13.3969 36.8366 12.3168 36.8366ZM10.4483 28.1906H15.1251C16.0612 28.1906 16.8173 27.4308 16.7813 26.49V25.8387C16.7813 25.0427 16.2412 24.3552 15.4852 24.1743L11.4888 23.1973C10.9847 23.0887 10.4447 23.1973 10.0486 23.523C9.65257 23.8486 9.40055 24.319 9.40055 24.8617C9.40055 25.2215 9.69215 25.5131 10.0519 25.5131H10.1894C10.5491 25.5131 10.8407 25.2215 10.8407 24.8617C10.8407 24.7532 10.9127 24.6808 10.9487 24.6446C10.9597 24.6446 10.9741 24.6379 10.9919 24.6295C11.0322 24.6105 11.0898 24.5834 11.1647 24.6085L15.1611 25.5854C15.3051 25.6216 15.3771 25.7302 15.3771 25.8387V26.49C15.3771 26.6347 15.2691 26.7433 15.1251 26.7433H10.4483C10.0486 26.7433 9.72458 27.0673 9.72458 27.467C9.72458 27.8666 10.0486 28.1906 10.4483 28.1906ZM8.04942 32.8004H36.7111H38.9462C40.078 32.8004 40.9955 31.8829 40.9955 30.751V25.0571C40.9955 23.6822 40.4915 22.4157 39.5194 21.4388L38.7298 20.6453C38.4504 20.3645 37.996 20.3645 37.7167 20.6453C37.4393 20.9241 37.4393 21.3746 37.7167 21.6534L38.5113 22.4519C39.2313 23.1394 39.5914 24.044 39.5914 25.021V30.3284C39.5914 30.8943 39.1326 31.3531 38.5667 31.3531H8.42885C7.86292 31.3531 7.40414 30.8943 7.40414 30.3284V24.9848C7.40414 24.0078 7.80018 23.1032 8.48425 22.4157L9.27884 21.6172C9.55624 21.3384 9.55624 20.8879 9.27884 20.6091C8.99948 20.3283 8.54507 20.3283 8.26571 20.6091L7.47615 21.4026C6.54005 22.3796 6 23.646 6 25.021V30.751C6 31.8829 6.91756 32.8004 8.04942 32.8004ZM39.2835 36.8366H35.0351C33.919 36.8366 33.0189 35.932 33.0189 34.8104V34.0469C33.0189 33.6492 33.3413 33.3268 33.739 33.3268C34.1366 33.3268 34.459 33.6492 34.459 34.0469V34.8104C34.459 35.136 34.7111 35.3893 35.0351 35.3893H39.2835C39.6075 35.3893 39.8596 35.136 39.8596 34.8104V34.0469C39.8596 33.6492 40.182 33.3268 40.5796 33.3268C40.9773 33.3268 41.2997 33.6492 41.2997 34.0469V34.8104C41.2637 35.932 40.3636 36.8366 39.2835 36.8366ZM30.4626 26.3434C30.4626 27.2842 31.2187 28.044 32.1548 28.044H36.7957C37.1954 28.044 37.5194 27.72 37.5194 27.3203C37.5194 26.9207 37.1954 26.5967 36.7957 26.5967H32.1188C31.9748 26.5967 31.8668 26.4881 31.8668 26.3434V25.6921C31.8668 25.5835 31.9748 25.475 32.0828 25.4388L36.0792 24.4618C36.1872 24.4257 36.2592 24.4618 36.2952 24.498C36.3312 24.5342 36.4032 24.6066 36.4032 24.7151C36.4032 25.0748 36.6948 25.3664 37.0545 25.3664H37.1921C37.5518 25.3664 37.8434 25.0748 37.8434 24.7151C37.8434 24.2086 37.5914 23.702 37.1953 23.3763C36.7993 23.0507 36.2592 22.9421 35.7552 23.0507L31.7588 24.0276C31.0027 24.2086 30.4626 24.896 30.4626 25.6921V26.3434ZM32.2855 15.052C31.9357 15.2127 31.522 15.0577 31.3638 14.7068L30.7867 13.4258C30.5707 12.9916 30.1386 12.7022 29.6346 12.7022H17.505C17.1053 12.7022 16.7813 12.3782 16.7813 11.9785C16.7813 11.5788 17.1053 11.2548 17.505 11.2548H29.5986C30.6427 11.2548 31.6148 11.8699 32.0468 12.8469L32.6281 14.1371C32.7846 14.4844 32.6316 14.8929 32.2855 15.052ZM41.8398 37.8194C42.2362 37.8194 42.5599 38.1408 42.5599 38.5373C42.5599 38.9337 42.2362 39.2551 41.8398 39.2551C41.4433 39.2551 41.1197 38.9337 41.1197 38.5373C41.1197 38.1408 41.4433 37.8194 41.8398 37.8194ZM38.2056 37.8194H5.43793C5.04147 37.8194 4.72007 38.1408 4.72007 38.5373C4.72007 38.9337 5.04147 39.2551 5.43793 39.2551H38.2056C38.6021 39.2551 38.9235 38.9337 38.9235 38.5373C38.9235 38.1408 38.6021 37.8194 38.2056 37.8194ZM28.5184 30.2874C28.9161 30.2874 29.2473 29.9604 29.1528 29.5741C28.8393 28.2917 27.7006 27.3203 26.3222 27.3203H20.9937C19.6153 27.3203 18.4766 28.2917 18.1631 29.5741C18.0686 29.9604 18.3998 30.2874 18.7975 30.2874C19.1952 30.2874 19.5021 29.9485 19.6777 29.5917C19.9174 29.1047 20.4047 28.7677 20.9937 28.7677H26.3222C26.9112 28.7677 27.3985 29.1047 27.6382 29.5917C27.8138 29.9485 28.1208 30.2874 28.5184 30.2874Z" fill="#4D5160"/>
</g>
</g>
</g>
<defs>
<clipPath id="clip0">
<rect width="40" height="31.155" fill="white" transform="translate(4 9.045)"/>
</clipPath>
</defs>
</svg>
