<svg width="48" height="48" viewBox="0 0 48 48" fill="none" xmlns="http://www.w3.org/2000/svg">
<path fill-rule="evenodd" clip-rule="evenodd" d="M6.43449 34.2003H37.6771C38.0506 34.2003 38.3533 34.5031 38.3533 34.8766C38.3533 35.25 38.0506 35.5528 37.6771 35.5528H6.43448C6.061 35.5528 5.75824 35.25 5.75824 34.8766C5.75824 34.5031 6.06101 34.2003 6.43449 34.2003ZM41.0245 34.2003H41.3288C41.7023 34.2003 42.0051 34.5031 42.0051 34.8766C42.0051 35.25 41.7023 35.5528 41.3288 35.5528H41.0245C40.651 35.5528 40.3483 35.25 40.3483 34.8766C40.3483 34.5031 40.651 34.2003 41.0245 34.2003Z" fill="#4D5160"/>
<path fill-rule="evenodd" clip-rule="evenodd" d="M30.8808 29.8191C30.8808 32.0507 32.7067 33.8766 34.9383 33.8766C37.2037 33.8766 38.9958 32.0507 38.9958 29.8191C38.9958 27.5875 37.1699 25.7616 34.9383 25.7616C32.7067 25.7616 30.8808 27.5875 30.8808 29.8191ZM32.2333 29.7853C32.2333 28.2975 33.4505 27.0803 34.9383 27.0803C36.4598 27.0803 37.6771 28.2975 37.6433 29.7853C37.6433 31.273 36.426 32.4903 34.9383 32.4903C33.4505 32.4903 32.2333 31.273 32.2333 29.7853ZM32.9433 29.7176C32.9433 30.8335 33.8225 31.7126 34.9383 31.7126C36.0541 31.7126 36.9332 30.8335 36.9332 29.7176C36.9332 28.6018 36.0541 27.7227 34.9383 27.7227C33.8225 27.7227 32.9433 28.6018 32.9433 29.7176ZM34.2958 29.7176C34.2958 29.3795 34.6001 29.0752 34.9383 29.0752C35.3102 29.0752 35.5807 29.3795 35.5807 29.7176C35.5807 30.0558 35.2764 30.3601 34.9383 30.3601C34.6001 30.3601 34.2958 30.0558 34.2958 29.7176Z" fill="#4D5160"/>
<path fill-rule="evenodd" clip-rule="evenodd" d="M7.95605 29.8191C7.95605 32.0507 9.78192 33.8766 12.0135 33.8766C14.2452 33.8766 16.071 32.0507 16.071 29.8191C16.071 27.5875 14.2452 25.7616 12.0135 25.7616C9.78192 25.7616 7.95605 27.5875 7.95605 29.8191ZM9.30855 29.7853C9.30855 28.2975 10.5258 27.0803 12.0135 27.0803C13.5013 27.0803 14.7185 28.2975 14.7185 29.7853C14.7185 31.273 13.5013 32.4903 12.0135 32.4903C10.5258 32.4903 9.30855 31.273 9.30855 29.7853ZM10.0186 29.7176C10.0186 30.8335 10.8977 31.7126 12.0135 31.7126C13.0955 31.7126 14.0085 30.8335 14.0085 29.7176C14.0085 28.6018 13.1293 27.7227 12.0135 27.7227C10.8977 27.7227 10.0186 28.6018 10.0186 29.7176ZM11.3711 29.7176C11.3711 29.3795 11.6754 29.0752 12.0135 29.0752C12.3517 29.0752 12.656 29.3795 12.656 29.7176C12.656 30.0558 12.3517 30.3601 12.0135 30.3601C11.6754 30.3601 11.3711 30.0558 11.3711 29.7176Z" fill="#4D5160"/>
<path d="M16.443 16.0237L20.8724 15.8208C23.4083 15.7194 25.9442 16.2604 28.2097 17.41L34.1944 20.3517L31.8276 21.9408L11.7092 20.4531C11.7092 20.4531 11.7769 18.9992 12.0135 18.7625L16.443 16.0237Z" fill="#80B6F0"/>
<path fill-rule="evenodd" clip-rule="evenodd" d="M33.2824 17.0363C33.1139 17.3731 32.704 17.5091 32.3677 17.3397L28.2773 15.2798C25.7714 13.9955 22.9754 13.3497 20.1581 13.3691C19.7862 13.3716 19.471 13.0863 19.4525 12.7149C19.4337 12.3397 19.7245 12.02 20.1001 12.0178C23.151 12.0005 26.1795 12.7094 28.8859 14.0625L32.9798 16.1242C33.3148 16.2929 33.4501 16.7008 33.2824 17.0363ZM15.3948 12.8791C15.4134 13.2526 15.7313 13.5402 16.1048 13.5215C16.4783 13.5029 16.7659 13.185 16.7472 12.8115C16.7286 12.438 16.4107 12.1504 16.0372 12.1691C15.6637 12.1877 15.3761 12.5056 15.3948 12.8791ZM40.7314 29.4651C40.3541 29.5109 40.0129 29.2377 39.9751 28.8595C39.9382 28.4914 40.2034 28.1617 40.5709 28.1187L41.3432 28.0284C42.0264 27.9486 42.5626 27.4052 42.6334 26.721L42.6651 26.4147C42.6401 26.4122 42.615 26.4083 42.5899 26.4029L39.7735 25.7954C39.3001 25.694 38.8943 25.4235 38.6238 25.0516L37.7075 23.8218C37.4834 23.521 37.4575 23.1164 37.6414 22.7895C37.8272 22.4591 38.1918 22.271 38.5686 22.311L41.3129 22.6021C40.685 21.8994 39.8335 21.4132 38.8605 21.2308L33.4077 20.1991L31.5524 21.428C31.1828 21.6727 30.7424 21.7878 30.3003 21.7551L10.66 20.3002C10.2845 20.2724 9.9998 19.95 10.0186 19.574C10.12 17.8495 10.4243 17.5452 10.5596 17.4438L10.661 17.3762L12.8119 16.0195C11.5501 16.2147 10.3485 16.6782 9.27473 17.3762L7.38123 18.6272C6.59154 19.1394 6.00393 19.8807 5.67793 20.7405L5.69221 20.7421L8.32587 21.0769C8.69803 21.1242 8.95844 21.4684 8.90279 21.8394C8.7745 22.7374 8.7003 23.1216 8.63742 23.317C8.58863 23.4686 8.51274 23.62 8.38461 23.7146C8.15386 23.8849 7.50671 24.1636 5.38631 24.9968V26.209C5.38631 26.749 5.67165 27.2487 6.13665 27.5231L6.87171 27.9569C7.19059 28.1451 7.29681 28.556 7.10907 28.8752C6.92264 29.1921 6.51589 29.3 6.19688 29.1172L5.00545 28.4343C4.38358 28.0778 4 27.4159 4 26.6991V22.3466C4 20.3855 4.98056 18.5934 6.60355 17.5114L8.49704 16.2603C10.0524 15.246 11.8783 14.6712 13.7041 14.5697L19.7566 14.2992C22.3939 14.164 25.0651 14.7388 27.432 15.956L32.6892 18.6331C32.8578 18.7189 33.0377 18.7804 33.2235 18.8157L38.9958 19.9121C41.126 20.3178 42.8166 21.8394 43.4252 23.9019L43.8833 25.4111C43.9603 25.6648 43.9861 25.9313 43.9592 26.195L43.8241 27.5194C43.7292 28.449 43.0033 29.1891 42.0756 29.3018L40.7314 29.4651ZM40.0778 24.5106L42.4559 25.0235L42.2418 24.2739C42.1989 24.13 42.1494 23.9898 42.0936 23.8535C41.9587 23.9623 41.7825 24.02 41.5964 24.0007L39.9595 23.8314C39.7189 23.8065 39.5628 24.0788 39.7058 24.2739C39.8073 24.4091 39.9425 24.4767 40.0778 24.5106ZM26.9248 17.1733L31.8126 19.6463L31.2139 20.0424C30.8445 20.2867 30.4045 20.4016 29.9629 20.3689L11.8624 19.0305C11.6332 19.0135 11.4676 18.7746 11.5125 18.5492C11.5325 18.4491 11.5883 18.3939 11.6746 18.3394L15.6266 15.8417L19.9256 15.6517C22.3263 15.5503 24.7608 16.0913 26.9248 17.1733ZM5.38631 22.3466C5.38631 22.2528 5.38913 22.1595 5.39473 22.0669C5.43465 22.0799 5.47635 22.0893 5.51951 22.0949L7.21113 22.3118C7.35565 22.3303 7.46155 22.4837 7.43677 22.6273C7.42541 22.6931 7.38119 22.7345 7.32021 22.7618C6.93447 22.9346 6.19607 23.2333 5.38631 23.5554V22.3466ZM15.3589 30.2497L15.4166 28.8984L31.2603 29.5745L31.2027 30.9257L15.3589 30.2497ZM29.127 28.5734C29.4989 28.5892 29.8138 28.302 29.8324 27.9303C29.8512 27.5549 29.5608 27.236 29.1853 27.2196L18.6452 26.7588C17.9311 26.7276 17.3078 26.3004 16.8645 25.7396C15.5069 24.0221 13.297 23.126 11.0855 23.4604C10.7158 23.5163 10.4992 23.8896 10.5921 24.2517C10.686 24.6179 11.0605 24.8323 11.436 24.7879C13.3969 24.556 15.3391 25.5415 16.249 27.3098C16.3625 27.5304 16.5193 27.7286 16.7257 27.8662C16.9167 27.9935 17.139 28.066 17.3684 28.0757L29.127 28.5734Z" fill="#4D5160"/>
</svg>
