<svg width="48" height="48" viewBox="0 0 48 48" fill="none" xmlns="http://www.w3.org/2000/svg">
<path d="M33.3793 21.3905L29.7932 19.4595C26.7242 17.8043 23.2414 16.9767 19.7587 17.0802L14.1035 17.2526L12.1035 19.5284C11.4483 20.2526 10.6207 21.1147 10.6207 21.1147L32.3794 22.3905L33.3793 21.3905Z" fill="#F98585"/>
<path d="M43.7241 32.8043C43.7241 32.4235 43.4154 32.1147 43.0345 32.1147H4.68966C4.30877 32.1147 4 32.4235 4 32.8043C4 33.1852 4.30877 33.494 4.68965 33.494H43.0345C43.4154 33.494 43.7241 33.1852 43.7241 32.8043Z" fill="#4D5160"/>
<path fill-rule="evenodd" clip-rule="evenodd" d="M6.93103 29.0802C6.93103 31.5285 8.93103 33.494 11.3448 33.494C13.7931 33.494 15.7586 31.5285 15.7586 29.0802C15.7586 26.6319 13.7931 24.6664 11.3448 24.6664C8.89654 24.6664 6.93103 26.6664 6.93103 29.0802ZM8.31034 29.0802C8.31034 27.3905 9.68965 26.0457 11.3448 26.0457C13.0345 26.0457 14.3793 27.425 14.3793 29.0802C14.3793 30.7698 13 32.1147 11.3448 32.1147C9.65516 32.1147 8.31034 30.7353 8.31034 29.0802ZM9.27585 29.0112C9.27585 30.1491 10.2069 31.0802 11.3448 31.0802C12.4827 31.0802 13.4483 30.1491 13.4138 29.0112C13.4138 27.8733 12.4827 26.9422 11.3448 26.9422C10.2069 26.9422 9.27585 27.8733 9.27585 29.0112ZM10.6552 29.0112C10.6552 28.6319 10.9655 28.3216 11.3448 28.3216C11.7241 28.3216 12.069 28.6319 12.0345 29.0112C12.0345 29.3905 11.7241 29.7009 11.3448 29.7009C10.9655 29.7009 10.6552 29.3905 10.6552 29.0112Z" fill="#4D5160"/>
<path fill-rule="evenodd" clip-rule="evenodd" d="M30.2413 29.0802C30.2413 31.5285 32.2413 33.494 34.6551 33.494C37.0689 33.494 39.0689 31.5285 39.0689 29.0802C39.0689 26.6319 37.1034 24.6664 34.6551 24.6664C32.2068 24.6664 30.2413 26.6664 30.2413 29.0802ZM31.6206 29.0802C31.6206 27.3905 32.9999 26.0457 34.6551 26.0457C36.3103 26.0457 37.6896 27.425 37.6896 29.0802C37.6896 30.7698 36.3448 32.1147 34.6551 32.1147C32.9655 32.1147 31.6206 30.7353 31.6206 29.0802ZM32.5862 29.0112C32.5862 30.1491 33.5172 31.0802 34.6551 31.0802C35.7931 31.0802 36.7241 30.1491 36.7241 29.0112C36.7241 27.8733 35.7931 26.9422 34.6551 26.9422C33.5172 26.9422 32.5862 27.8733 32.5862 29.0112ZM33.9655 29.0112C33.9655 28.6319 34.2758 28.3216 34.6551 28.3216C35.0344 28.3216 35.3448 28.6319 35.3448 29.0112C35.3448 29.3905 35.0344 29.7009 34.6551 29.7009C34.2758 29.7009 33.9655 29.3905 33.9655 29.0112Z" fill="#4D5160"/>
<path fill-rule="evenodd" clip-rule="evenodd" d="M5.81546 29.3754L7.48277 29.7698L7.86207 28.3905L5.72416 27.8733V21.7698C5.72416 21.2181 5.89656 20.7008 6.27587 20.2871L8.2069 18.1491C8.65518 17.6664 11.1379 16.6319 11.8966 16.6319L18.7586 16.425C22.1379 16.3215 25.4828 17.1146 28.4483 18.7008L31.2219 20.1962L31.069 20.356L11.069 19.1836L11.0811 19.1715C11.3466 18.9035 11.3225 18.453 11.0464 18.1959C10.7743 17.9426 10.3477 17.9609 10.0949 18.2335C9.88011 18.4651 9.67051 18.6881 9.49733 18.8713C9.23655 19.1471 9.15547 19.5478 9.29104 19.9023C9.42874 20.2625 9.76469 20.5085 10.1496 20.531L31.2759 21.7698L31.7931 21.5284L32.4716 20.85L39.3448 22.1836C40.3916 22.3623 41.2682 23.0325 41.7368 23.9422H41.2414C40.6255 23.9422 40.1706 23.6659 39.7899 23.2747C39.5216 22.9989 39.0929 22.9243 38.785 23.1552C38.4835 23.3814 38.4152 23.812 38.6691 24.0906C39.3367 24.8233 40.1644 25.3215 41.2414 25.3215H42.0794L42.1379 27.2526C42.1379 27.356 42.069 27.425 41.9655 27.425L38.3793 27.6664L38.4483 29.0457L42.0345 28.8043C42.8621 28.7698 43.5173 28.0457 43.4828 27.2181L43.4138 24.9077V24.8388C43.1035 22.8388 41.5862 21.2181 39.5862 20.8388L32.8621 19.5629L29.069 17.5284C25.8966 15.8043 22.3104 14.9767 18.6897 15.0802L11.8276 15.2871C10.7586 15.2871 7.89656 16.4595 7.13794 17.2871L5.20692 19.425C4.62071 20.0802 4.27588 20.9077 4.27588 21.8043V27.4291C4.27588 28.3563 4.91316 29.1619 5.81546 29.3754ZM17.5172 28.3905H28.4828C28.8637 28.3905 29.1724 28.6993 29.1724 29.0802C29.1724 29.461 28.8637 29.7698 28.4828 29.7698H17.5172C17.1364 29.7698 16.8276 29.461 16.8276 29.0802C16.8276 28.6993 17.1364 28.3905 17.5172 28.3905ZM31.6436 22.7926L18.2352 22.3971C17.8545 22.3859 17.5367 22.6854 17.5255 23.0662C17.5143 23.4469 17.8138 23.7647 18.1945 23.7759L31.603 24.1713C31.9837 24.1826 32.3015 23.883 32.3127 23.5023C32.3239 23.1216 32.0244 22.8038 31.6436 22.7926ZM14.1724 23.6491C14.5533 23.6586 14.8698 23.3576 14.8793 22.9767C14.8888 22.5958 14.5878 22.2793 14.2069 22.2698C13.826 22.2603 13.5095 22.5613 13.5 22.9422C13.4905 23.3231 13.7915 23.6396 14.1724 23.6491Z" fill="#4D5160"/>
</svg>
