<svg width="48" height="48" viewBox="0 0 48 48" fill="none" xmlns="http://www.w3.org/2000/svg">
<g id="compact_crossover-Yellow">
<g id="compact">
<path id="color" fill-rule="evenodd" clip-rule="evenodd" d="M32.4334 22.7381H12.6334C12.2334 22.7381 11.9334 22.4048 11.9667 22.0048L12.2001 19.3381C12.2334 19.0048 12.5334 18.7381 12.8667 18.7381H29.8334L32.4334 22.7381ZM32.1334 32.6048C32.1334 31.4381 32.7667 30.4048 33.7 29.8048H31.1H17.8L15.3 26.7714H7.03339L6.70006 29.8714C6.16672 30.0381 5.76672 30.5714 5.76672 31.1714C5.76672 31.9381 6.36672 32.5381 7.13339 32.5381H9.50005H9.53339C9.56672 30.7381 11.0334 29.3048 12.8334 29.3048C14.6667 29.3048 16.1334 30.7714 16.1334 32.6048V32.6714H16.2001H31.8334H32.2C32.1334 32.6381 32.1334 32.6048 32.1334 32.6048ZM40.1334 29.8048H43.4667C43.7667 29.8048 43.9667 30.0381 44 30.3381V30.4048C44 31.6714 42.9667 32.6714 41.7334 32.6714H39.1H38.7V32.6048C38.7 31.4048 38.0667 30.3714 37.1334 29.8048H40.1334Z" fill="#FED647"/>
<path id="wheel" fill-rule="evenodd" clip-rule="evenodd" d="M30.3667 31.2714C30.3667 33.4714 32.1667 35.2714 34.3667 35.2714C36.5667 35.2714 38.3667 33.4714 38.3667 31.2714C38.3667 29.0714 36.5667 27.2714 34.3667 27.2714C32.1667 27.2714 30.3667 29.0714 30.3667 31.2714ZM31.7 31.2381C31.7 29.7714 32.9 28.5714 34.3667 28.5714C35.8334 28.5714 37.0667 29.7714 37.0334 31.2381C37.0334 32.7048 35.8334 33.9048 34.3667 33.9048C32.9 33.9048 31.7 32.7048 31.7 31.2381ZM32.4 31.1714C32.4 32.2714 33.2667 33.1381 34.3667 33.1381C35.4667 33.1381 36.3334 32.2714 36.3334 31.1714C36.3334 30.0714 35.4667 29.2048 34.3667 29.2048C33.2667 29.2048 32.4 30.0714 32.4 31.1714ZM33.7334 31.1714C33.7334 30.8381 34.0334 30.5381 34.3667 30.5381C34.7334 30.5381 35 30.8381 35 31.1714C35 31.5048 34.7 31.8048 34.3667 31.8048C34.0334 31.8048 33.7334 31.5048 33.7334 31.1714Z" fill="#4D5160"/>
<path id="wheel_2" fill-rule="evenodd" clip-rule="evenodd" d="M7.73328 31.2714C7.73328 33.4714 9.53328 35.2714 11.7333 35.2714C13.9666 35.2714 15.7333 33.4714 15.7333 31.2714C15.7333 29.0714 13.9333 27.2714 11.7333 27.2714C9.53328 27.2714 7.73328 29.0714 7.73328 31.2714ZM9.06661 31.2381C9.06661 29.7714 10.2666 28.5714 11.7333 28.5714C13.2333 28.5714 14.4333 29.7714 14.3999 31.2381C14.3999 32.7048 13.1999 33.9048 11.7333 33.9048C10.2666 33.9048 9.06661 32.7048 9.06661 31.2381ZM9.76661 31.1714C9.76661 32.2714 10.6333 33.1381 11.7333 33.1381C12.8333 33.1381 13.6999 32.2714 13.6999 31.1714C13.6999 30.0714 12.8333 29.2048 11.7333 29.2048C10.6333 29.2048 9.76661 30.0714 9.76661 31.1714ZM11.0999 31.1714C11.0999 30.8381 11.3999 30.5381 11.7333 30.5381C12.0999 30.5381 12.3666 30.8381 12.3666 31.1714C12.3666 31.5048 12.0666 31.8048 11.7333 31.8048C11.3999 31.8048 11.0999 31.5048 11.0999 31.1714Z" fill="#4D5160"/>
<path id="frame" fill-rule="evenodd" clip-rule="evenodd" d="M24.7333 11.2381C25.1015 11.2381 25.4 11.5366 25.4 11.9048C25.4 12.273 25.1015 12.5714 24.7333 12.5714H23.8442C23.6869 12.5714 23.5783 12.7291 23.6344 12.8761C23.7657 13.2201 23.5932 13.6053 23.2492 13.7366C22.9052 13.8679 22.5199 13.6954 22.3887 13.3514L22.1629 12.7597C22.124 12.6577 22.0363 12.5714 21.9272 12.5714H11.8546C11.7367 12.5714 11.6429 12.6664 11.6009 12.7766L11.3751 13.3683C11.2438 13.7123 10.8585 13.8848 10.5145 13.7535C10.1706 13.6223 9.99809 13.237 10.1294 12.893C10.1886 12.7378 10.074 12.5714 9.90788 12.5714H9.03332C8.66513 12.5714 8.36666 12.273 8.36666 11.9048C8.36666 11.5366 8.66513 11.2381 9.03332 11.2381H24.7333ZM5.04231 28.0908L6.23333 16.4381C6.36666 15.2714 7.33333 14.4048 8.5 14.4048H26.3667C27.1333 14.4048 27.8333 14.7714 28.2666 15.4048L31.8 20.9381L39.3333 22.2714C40.9333 22.5381 42.1666 23.8048 42.4 25.4048V25.4381L42.588 27.8821C43.1511 27.9602 43.6 28.4571 43.6 29.0381V29.1048C43.5666 30.7048 42.2666 32.0381 40.6666 32.0381H38.0333V30.7048H40.6666C41.5333 30.7048 42.2333 30.0381 42.2666 29.2048H39.7666C39.3984 29.2048 39.1 28.9063 39.1 28.5381C39.1 28.1699 39.3984 27.8714 39.7666 27.8714H41.2455L41.1726 26.9342C41.1488 26.9368 41.1245 26.9381 41.1 26.9381H39C37.9333 26.9381 37.0666 26.0714 37.0666 25.0048C37.0666 24.655 37.3502 24.3714 37.7 24.3714H37.7666C38.1164 24.3714 38.4 24.655 38.4 25.0048C38.4 25.3381 38.6666 25.6048 39 25.6048H41.0692L41.0666 25.5714C40.9 24.5381 40.1 23.7381 39.1 23.5714L31 22.1381L30.9788 22.1048H11.6C11.2333 22.1048 10.8667 21.9381 10.6 21.6714C10.3333 21.4048 10.2333 21.0381 10.2667 20.6381L10.5 17.9714C10.5667 17.2714 11.1333 16.7714 11.8333 16.7714H20.9666C21.3348 16.7714 21.6333 17.0699 21.6333 17.4381C21.6333 17.8063 21.3348 18.1048 20.9666 18.1048L20.4667 18.1048V20.7714L30.1317 20.7714L27.1667 16.1048C27 15.8714 26.7 15.7048 26.4 15.7048H8.5C8 15.7048 7.6 16.0714 7.56666 16.5381L6.72406 24.8047H14.0931C14.3718 24.8047 14.636 24.9294 14.8133 25.1445L16.7533 27.4984C16.9306 27.7135 17.1948 27.8381 17.4736 27.8381H29.3666C29.7348 27.8381 30.0333 28.1366 30.0333 28.5047C30.0333 28.8729 29.7348 29.1714 29.3666 29.1714H16.8699C16.5932 29.1714 16.3308 29.0487 16.1535 28.8364L14.1798 26.4731C14.0025 26.2608 13.7401 26.1381 13.4635 26.1381H6.58815L6.41488 27.8381H7.13333C7.50152 27.8381 7.8 28.1366 7.8 28.5047C7.8 28.8729 7.50152 29.1714 7.13333 29.1714H6.03333C5.63333 29.1714 5.33333 29.4714 5.33333 29.8714C5.33333 30.2714 5.63333 30.5714 6.03333 30.5714H7.73333C8.10152 30.5714 8.4 30.8699 8.4 31.2381C8.4 31.6063 8.10152 31.9047 7.73333 31.9047H6.03333C4.9 31.9047 4 31.0047 4 29.8714C4 29.0993 4.4177 28.4355 5.04231 28.0908ZM12.0624 18.1048L19.1333 18.1048V20.7714L11.8728 20.7714C11.7262 20.7714 11.611 20.6457 11.6238 20.4996L11.8134 18.333C11.8247 18.2038 11.9328 18.1048 12.0624 18.1048ZM30.7333 30.7047H15.1V32.0381H30.7333V30.7047ZM25.3333 17.4381C25.3333 17.8063 25.0348 18.1048 24.6667 18.1048C24.2985 18.1048 24 17.8063 24 17.4381C24 17.0699 24.2985 16.7714 24.6667 16.7714C25.0348 16.7714 25.3333 17.0699 25.3333 17.4381ZM20.4667 23.6714V26.3381C20.4667 26.7063 20.1682 27.0047 19.8 27.0047C19.4318 27.0047 19.1333 26.7063 19.1333 26.3381V23.6714C19.1333 23.3032 19.4318 23.0048 19.8 23.0048C20.1682 23.0048 20.4667 23.3032 20.4667 23.6714Z" fill="#4D5160"/>
<path id="street" fill-rule="evenodd" clip-rule="evenodd" d="M40.7 36.1762C40.3318 36.1762 40.0333 35.8777 40.0333 35.5095C40.0333 35.1413 40.3318 34.8428 40.7 34.8428C41.0682 34.8428 41.3667 35.1413 41.3667 35.5095C41.3667 35.8777 41.0682 36.1762 40.7 36.1762ZM6.60002 34.8428H37.4C37.7682 34.8428 38.0667 35.1413 38.0667 35.5095C38.0667 35.8777 37.7682 36.1762 37.4 36.1762H6.60002C6.23183 36.1762 5.93335 35.8777 5.93335 35.5095C5.93335 35.1413 6.23183 34.8428 6.60002 34.8428Z" fill="#4D5160"/>
</g>
</g>
</svg>
