<svg width="48" height="48" viewBox="0 0 48 48" fill="none" xmlns="http://www.w3.org/2000/svg">
<g id="pickup-Default">
<g id="truck">
<path id="street" d="M41.7953 32.4567H5.51184V33.7166H41.7953V32.4567Z" fill="#4D5160"/>
<path id="Union" fill-rule="evenodd" clip-rule="evenodd" d="M30.8032 28.937C30.8032 31.0158 32.504 32.7166 34.5828 32.7166C36.693 32.7166 38.3623 31.0158 38.3623 28.937C38.3623 26.8583 36.6615 25.1575 34.5828 25.1575C32.504 25.1575 30.8032 26.8583 30.8032 28.937ZM32.0631 28.9055C32.0631 27.5197 33.1969 26.3858 34.5828 26.3858C36.0001 26.3858 37.1339 27.5197 37.1024 28.9055C37.1024 30.2914 35.9686 31.4252 34.5828 31.4252C33.1969 31.4252 32.0631 30.2914 32.0631 28.9055ZM32.7245 28.874C32.7245 29.9134 33.5434 30.7323 34.5828 30.7323C35.6221 30.7323 36.441 29.8819 36.441 28.874C36.441 27.8346 35.6221 27.0157 34.5828 27.0157C33.5434 27.0157 32.7245 27.8346 32.7245 28.874ZM33.9843 28.874C33.9843 28.5591 34.2678 28.2756 34.5828 28.2756C34.9292 28.2756 35.1812 28.5276 35.1812 28.874C35.1812 29.189 34.8977 29.4724 34.5828 29.4724C34.2678 29.4724 33.9843 29.189 33.9843 28.874Z" fill="#4D5160"/>
<path id="wheel" fill-rule="evenodd" clip-rule="evenodd" d="M9.41724 28.937C9.41724 31.0158 11.118 32.7166 13.1968 32.7166C15.307 32.7166 16.9763 31.0158 16.9763 28.937C16.9763 26.8583 15.2755 25.1575 13.1968 25.1575C11.118 25.1575 9.41724 26.8583 9.41724 28.937ZM10.6771 28.9055C10.6771 27.5197 11.8109 26.3858 13.1968 26.3858C14.6141 26.3858 15.7479 27.5197 15.7164 28.9055C15.7164 30.2914 14.5826 31.4252 13.1968 31.4252C11.8109 31.4252 10.6771 30.2914 10.6771 28.9055ZM11.3386 28.874C11.3386 29.9134 12.1574 30.7323 13.1968 30.7323C14.2362 30.7323 15.0551 29.8819 15.0551 28.874C15.0551 27.8346 14.2362 27.0157 13.1968 27.0157C12.1574 27.0157 11.3386 27.8346 11.3386 28.874ZM12.5984 28.874C12.5984 28.5591 12.8819 28.2756 13.1968 28.2756C13.5433 28.2756 13.7953 28.5276 13.7953 28.874C13.7953 29.189 13.5118 29.4724 13.1968 29.4724C12.8819 29.4724 12.5984 29.189 12.5984 28.874Z" fill="#4D5160"/>
<path id="outline" fill-rule="evenodd" clip-rule="evenodd" d="M41.0509 25.7244L40.9823 24.8414C40.9699 24.8422 40.9574 24.8425 40.9449 24.8425H38.9606C37.9528 24.8425 37.1339 24.0236 37.1339 23.0157C37.1339 22.6852 37.4018 22.4173 37.7323 22.4173H37.7953C38.1258 22.4173 38.3937 22.6852 38.3937 23.0157C38.3937 23.3307 38.6457 23.5827 38.9606 23.5827H40.8843L40.8819 23.5512C40.7258 22.5831 39.9813 21.8318 39.0477 21.6656C39.0317 21.6627 39.0155 21.6614 38.9993 21.6614C38.9736 21.6614 38.9481 21.6581 38.9233 21.6514L34.6407 20.5076C34.4697 20.462 34.307 20.3942 34.1562 20.3071H22.8347C22.4882 20.3071 22.1417 20.1496 21.8898 19.8976C21.6378 19.6457 21.5433 19.2992 21.5748 18.9213L21.7953 16.4016C21.8583 15.7402 22.3937 15.2677 23.0551 15.2677H25.4724C25.8203 15.2677 26.1024 15.5497 26.1024 15.8976C26.1024 16.2455 25.8203 16.5276 25.4724 16.5276H23.5133C23.254 16.5276 23.0378 16.7257 23.0152 16.984L22.8822 18.5037C22.8567 18.7959 23.087 19.0472 23.3803 19.0472H33.0849L30.2677 14.6378C30.1102 14.4173 29.8268 14.2598 29.5433 14.2598H21.7953C21.3228 14.2598 20.9449 14.6063 20.9134 15.0472L20.4409 19.7087V24.2756C20.4409 24.6235 20.1589 24.9055 19.811 24.9055C19.4631 24.9055 19.1811 24.6235 19.1811 24.2756V19.6142L19.6535 14.9213C19.7795 13.8189 20.6929 13 21.7953 13H29.5433C30.2677 13 30.9291 13.3465 31.3386 13.9449L34.2589 18.5457C34.5279 18.9695 34.9464 19.2766 35.4313 19.4062L39.2756 20.4331C40.7457 20.7146 41.9052 21.8658 42.137 23.3625C42.1403 23.3832 42.1417 23.4042 42.1417 23.4252L42.3137 25.66C42.3155 25.6836 42.316 25.707 42.3152 25.7301C42.8639 25.7874 43.3071 26.2655 43.3071 26.8267V26.8897C43.3071 28.433 42.0472 29.6614 40.5354 29.6614H38.0473V28.4016H40.5354C41.3543 28.4016 42.0158 27.7716 42.0473 26.9842H39.6851C39.3372 26.9842 39.0551 26.7022 39.0551 26.3543C39.0551 26.0064 39.3372 25.7244 39.6851 25.7244H41.0509ZM29.8583 26.9528C30.2062 26.9528 30.4882 26.6707 30.4882 26.3228C30.4882 25.9749 30.2062 25.6929 29.8583 25.6929H19.1415C18.5479 25.6929 17.985 25.4293 17.605 24.9733L16.4422 23.5779C16.0622 23.1219 15.4993 22.8583 14.9058 22.8583H6.20472V20.8071C6.20472 20.5309 6.42858 20.3071 6.70472 20.3071H16.378C16.7259 20.3071 17.0079 20.0251 17.0079 19.6772C17.0079 19.3293 16.7259 19.0472 16.378 19.0472H5.94488C5.3926 19.0472 4.94488 19.495 4.94488 20.0472V25.7559C4.94488 25.8294 4.95747 25.9 4.9806 25.9655C4.39278 26.2919 4 26.9179 4 27.6456C4 28.7165 4.85041 29.5669 5.92127 29.5669H9.41733C9.76522 29.5669 10.0472 29.2849 10.0472 28.937C10.0472 28.5891 9.76522 28.3071 9.41733 28.3071H5.92127C5.54332 28.3071 5.25984 28.0236 5.25984 27.6456C5.25984 27.2677 5.54332 26.9842 5.92127 26.9842H6.96064C7.30853 26.9842 7.59056 26.7022 7.59056 26.3543C7.59056 26.0064 7.30853 25.7244 6.96064 25.7244H6.20472L6.20473 24.1181H14.3153C14.9043 24.1181 15.4633 24.3777 15.8433 24.8277L17.0386 26.2431C17.4186 26.6931 17.9776 26.9528 18.5666 26.9528H29.8583ZM31.1496 28.4016H16.378V29.6614H31.1496V28.4016ZM28.8819 15.8976C28.8819 16.2455 28.5999 16.5276 28.252 16.5276C27.9041 16.5276 27.622 16.2455 27.622 15.8976C27.622 15.5497 27.9041 15.2677 28.252 15.2677C28.5999 15.2677 28.8819 15.5497 28.8819 15.8976Z" fill="#4D5160"/>
</g>
</g>
</svg>
