<svg width="96" height="96" viewBox="0 0 96 96" fill="none" xmlns="http://www.w3.org/2000/svg">
<path d="M83.8033 63.2131H13.1147C12.6077 63.2131 12.1967 63.6242 12.1967 64.1312V64.9181C12.1967 65.4251 12.6077 65.8361 13.1147 65.8361H83.8033C84.3103 65.8361 84.7213 65.4251 84.7213 64.9181V64.1312C84.7213 63.6242 84.3103 63.2131 83.8033 63.2131Z" fill="#4D5160"/>
<path fill-rule="evenodd" clip-rule="evenodd" d="M19.082 55.9016C19.082 60.2951 22.623 63.8361 27.0164 63.8361C31.3443 63.8361 34.9508 60.2951 34.9508 55.9016C34.9508 51.5082 31.4098 47.9672 27.0164 47.9672C22.623 47.9672 19.082 51.5082 19.082 55.9016ZM21.7049 55.9672C21.7049 53.0164 24.1312 50.6557 27.0164 50.6557C29.9016 50.6557 32.3279 53.0164 32.3279 55.9672C32.3279 58.918 29.9016 61.2787 27.0164 61.2787C24.0656 61.2787 21.7049 58.918 21.7049 55.9672ZM23.2131 55.7705C23.2131 57.8689 24.9181 59.5738 27.0164 59.5738C29.1148 59.5738 30.7541 57.8689 30.8197 55.7705C30.8197 53.6721 29.1148 51.9672 27.0164 51.9672C24.9181 51.9672 23.2131 53.6721 23.2131 55.7705ZM25.8361 55.8361C25.8361 55.1803 26.3607 54.6557 27.0164 54.6557C27.6722 54.6557 28.1312 55.1803 28.1967 55.8361C28.1967 56.4918 27.6722 57.0164 27.0164 57.0164C26.3607 57.0164 25.8361 56.4918 25.8361 55.8361Z" fill="#4D5160"/>
<path fill-rule="evenodd" clip-rule="evenodd" d="M58.5574 55.9016C58.5574 60.2951 62.0984 63.8361 66.4918 63.8361C70.8197 63.8361 74.4262 60.2951 74.4262 55.9016C74.4262 51.5082 70.8853 47.9672 66.4918 47.9672C62.0984 47.9672 58.5574 51.5082 58.5574 55.9016ZM61.1803 55.9672C61.1803 53.0164 63.6066 50.6557 66.4918 50.6557C69.3771 50.6557 71.8033 53.0164 71.8033 55.9672C71.8033 58.918 69.3771 61.2787 66.4918 61.2787C63.541 61.2787 61.1803 58.918 61.1803 55.9672ZM62.6886 55.7705C62.6886 57.8689 64.3935 59.5738 66.4919 59.5738C68.5247 59.5738 70.2296 57.8689 70.2951 55.7705C70.2951 53.6721 68.5902 51.9672 66.4919 51.9672C64.3935 51.9672 62.6886 53.6721 62.6886 55.7705ZM65.3115 55.8361C65.3115 55.1803 65.8361 54.6557 66.4919 54.6557C67.082 54.6557 67.6066 55.1803 67.6722 55.8361C67.6722 56.4918 67.1476 57.0164 66.4919 57.0164C65.8361 57.0164 65.3115 56.4918 65.3115 55.8361Z" fill="#4D5160"/>
<path fill-rule="evenodd" clip-rule="evenodd" d="M66.2207 39.4917C66.4564 39.666 66.6141 39.904 66.6898 40.1638C72.6071 41.3909 78.4033 43.2147 83.9344 45.6066L84.1311 45.6721C85.2459 46.1312 85.9016 47.1803 85.9016 48.3607V54.2623H86.5574C87.0644 54.2623 87.4754 54.6733 87.4754 55.1803V56.1639C87.4754 56.671 87.0644 57.082 86.5574 57.082H84.9836L84.9809 57.082H77.9016C77.1773 57.082 76.5901 56.4948 76.5901 55.7705C76.5901 55.0462 77.1773 54.459 77.9016 54.459H83.0942C83.2323 54.459 83.3442 54.3471 83.3442 54.209V51.6105C83.2537 51.6124 83.1616 51.6051 83.069 51.5877L82.2951 51.4426C80.7869 51.1803 79.3443 50.6557 78.0328 49.8033L77.4102 49.4343C76.7796 49.0607 76.5783 48.2425 76.9635 47.6189C77.3387 47.0113 78.1315 46.8162 78.7459 47.1803L79.4098 47.5738C80.459 48.2295 81.5738 48.623 82.7541 48.8197L83.3442 48.9303V48.2951C83.3442 48.2154 83.32 48.1357 83.2716 48.0707C83.2097 47.9876 83.1058 47.9532 83.0069 47.9203L82.9928 47.9156L82.9508 47.9016C75.8689 44.8853 68.3934 42.7869 60.7213 41.6721L57.7049 41.4754C56.3934 41.4098 55.1475 40.623 54.4918 39.4426C53.7054 38.1119 53.9793 36.3905 55.1074 35.4109C53.2574 34.3012 51.6732 33.388 50.7221 32.8431C50.1547 32.5181 49.9845 31.9009 50.2964 31.3262C50.6915 30.5985 51.6063 30.3292 52.3265 30.7378C55.1012 32.3121 61.6403 36.1037 66.2207 39.4917ZM56.918 37.3443C57.1243 37.1969 57.2669 36.9935 57.3398 36.7694C58.5878 37.5404 59.8842 38.3622 61.1397 39.1932L61.0492 39.1803L57.9016 38.918C57.4426 38.8525 57.0492 38.5902 56.7869 38.1967C56.5902 37.8689 56.6557 37.541 56.918 37.3443ZM15.83 56.6074C16.5016 56.9049 17.2869 56.5978 17.5784 55.9236C17.8663 55.2579 17.5639 54.4845 16.9007 54.1907L12.918 52.4262C11.7377 51.9672 11.0164 50.7869 11.0164 49.541V49.4771L14.0286 48.4863C14.9702 48.1765 15.6065 47.2973 15.6065 46.3061V44.8853C15.6065 43.6177 14.579 42.5902 13.3115 42.5902H12.4527C13.4721 41.4621 14.9473 40.7541 16.5902 40.7541H48C48.5959 40.7541 49.1918 40.7541 49.7877 40.7661C50.5308 40.7811 51.163 40.2022 51.1816 39.4591C51.1992 38.7544 50.6562 38.1615 49.9514 38.1458C49.2963 38.1311 48.6361 38.1311 48 38.1311H40.2034L35.4754 33.2787C35.0164 32.8197 34.3606 32.5574 33.7049 32.5574H32.7869C31.9344 32.5574 31.1475 33.0164 30.6885 33.7377C30.2295 34.5246 30.1639 35.377 30.5574 36.1639L31.507 38.1311H27.1667L28.6541 37.6205C29.3391 37.3853 29.7038 36.6393 29.4687 35.9543C29.2335 35.2692 28.4875 34.9045 27.8024 35.1397L20.298 37.716C20.0561 37.7991 19.8541 37.9459 19.7044 38.1311H16.5902C12.0656 38.1311 8.39343 41.8033 8.39343 46.3279V49.541C8.39343 51.8361 9.77049 53.9344 11.8689 54.8525L15.83 56.6074ZM34.4131 38.1311L33.0491 35.2459H33.7049L36.5162 38.1311H34.4131ZM12.6388 46.1733L11.0164 46.6803V46.3279C11.0164 45.946 11.0546 45.5732 11.1275 45.2131H12.4923C12.7636 45.2131 12.9836 45.4331 12.9836 45.7044C12.9836 45.9193 12.8439 46.1092 12.6388 46.1733ZM37.9016 54.459H55.1475C55.8718 54.459 56.459 55.0462 56.459 55.7705C56.459 56.4948 55.8718 57.082 55.1475 57.082H37.9016C37.1773 57.082 36.5901 56.4948 36.5901 55.7705C36.5901 55.0462 37.1773 54.459 37.9016 54.459ZM37.5737 43.2459H41.6393C42.1463 43.2459 42.5573 43.6569 42.5573 44.1639V44.9508C42.5573 45.4578 42.1463 45.8689 41.6393 45.8689H37.5737C37.0667 45.8689 36.6557 45.4578 36.6557 44.9508V44.1639C36.6557 43.6569 37.0667 43.2459 37.5737 43.2459Z" fill="#4D5160"/>
</svg>
