<svg width="96" height="96" viewBox="0 0 96 96" fill="none" xmlns="http://www.w3.org/2000/svg">
<path fill-rule="evenodd" clip-rule="evenodd" d="M12.869 68.4007H75.3542C76.1012 68.4007 76.7067 69.0062 76.7067 69.7532C76.7067 70.5002 76.1012 71.1057 75.3542 71.1057H12.869C12.122 71.1057 11.5165 70.5002 11.5165 69.7532C11.5165 69.0062 12.122 68.4007 12.869 68.4007ZM82.049 68.4007H82.6577C83.4046 68.4007 84.0101 69.0062 84.0101 69.7532C84.0101 70.5002 83.4046 71.1057 82.6577 71.1057H82.049C81.3021 71.1057 80.6965 70.5002 80.6965 69.7532C80.6965 69.0062 81.3021 68.4007 82.049 68.4007Z" fill="#4D5160"/>
<path fill-rule="evenodd" clip-rule="evenodd" d="M61.7616 59.6382C61.7616 64.1014 65.4134 67.7532 69.8766 67.7532C74.4074 67.7532 77.9915 64.1014 77.9915 59.6382C77.9915 55.175 74.3398 51.5233 69.8766 51.5233C65.4134 51.5233 61.7616 55.175 61.7616 59.6382ZM64.4666 59.5706C64.4666 56.5951 66.9011 54.1606 69.8766 54.1606C72.9197 54.1606 75.3542 56.5951 75.2866 59.5706C75.2866 62.5461 72.8521 64.9806 69.8766 64.9806C66.9011 64.9806 64.4666 62.5461 64.4666 59.5706ZM65.8867 59.4354C65.8867 61.667 67.645 63.4252 69.8766 63.4252C72.1082 63.4252 73.8664 61.667 73.8664 59.4354C73.8664 57.2037 72.1082 55.4455 69.8766 55.4455C67.645 55.4455 65.8867 57.2037 65.8867 59.4354ZM68.5917 59.4354C68.5917 58.7591 69.2003 58.1505 69.8766 58.1505C70.6204 58.1505 71.1614 58.7591 71.1614 59.4354C71.1614 60.1116 70.5528 60.7202 69.8766 60.7202C69.2003 60.7202 68.5917 60.1116 68.5917 59.4354Z" fill="#4D5160"/>
<path fill-rule="evenodd" clip-rule="evenodd" d="M15.9121 59.6382C15.9121 64.1014 19.5638 67.7532 24.0271 67.7532C28.4903 67.7532 32.142 64.1014 32.142 59.6382C32.142 55.175 28.4903 51.5233 24.0271 51.5233C19.5638 51.5233 15.9121 55.175 15.9121 59.6382ZM18.6171 59.5706C18.6171 56.5951 21.0516 54.1606 24.0271 54.1606C27.0026 54.1606 29.437 56.5951 29.437 59.5706C29.437 62.5461 27.0026 64.9806 24.0271 64.9806C21.0516 64.9806 18.6171 62.5461 18.6171 59.5706ZM20.0372 59.4354C20.0372 61.667 21.7954 63.4252 24.027 63.4252C26.191 63.4252 28.0169 61.667 28.0169 59.4354C28.0169 57.2037 26.2587 55.4455 24.027 55.4455C21.7954 55.4455 20.0372 57.2037 20.0372 59.4354ZM22.7422 59.4354C22.7422 58.7591 23.3508 58.1505 24.027 58.1505C24.7033 58.1505 25.3119 58.7591 25.3119 59.4354C25.3119 60.1116 24.7033 60.7202 24.027 60.7202C23.3508 60.7202 22.7422 60.1116 22.7422 59.4354Z" fill="#4D5160"/>
<path fill-rule="evenodd" clip-rule="evenodd" d="M66.5647 34.0726C66.2279 34.7462 65.408 35.0182 64.7354 34.6794L56.5545 30.5596C51.5429 27.9911 45.9509 26.6994 40.3161 26.7381C39.5724 26.7432 38.9421 26.1726 38.905 25.4298C38.8674 24.6794 39.449 24.0399 40.2003 24.0357C46.302 24.0011 52.3591 25.4187 57.7718 28.1251L65.9596 32.2485C66.6295 32.5858 66.9002 33.4017 66.5647 34.0726ZM30.7895 25.7582C30.8269 26.5052 31.4627 27.0805 32.2096 27.0431C32.9566 27.0058 33.5318 26.37 33.4945 25.623C33.4571 24.876 32.8213 24.3008 32.0744 24.3381C31.3274 24.3755 30.7522 25.0113 30.7895 25.7582ZM81.4628 58.9302C80.7083 59.0219 80.0257 58.4754 79.9501 57.7191C79.8765 56.9827 80.4068 56.3233 81.1419 56.2374L83.4323 55.9697C84.3628 55.8609 85.0931 55.1209 85.1895 54.189L85.3301 52.8294C85.2802 52.8244 85.2301 52.8166 85.1799 52.8058L79.5469 51.5909C78.6002 51.388 77.7887 50.847 77.2477 50.1031L75.4151 47.6436C74.9668 47.042 74.915 46.2328 75.2828 45.579C75.6544 44.9183 76.3835 44.5421 77.1373 44.622L82.6258 45.2041C81.3699 43.7989 79.667 42.8264 77.7211 42.4615L66.8153 40.3983L62.5347 43.2335C62.1651 43.4783 61.7246 43.5934 61.2825 43.5607L20.9432 40.5726C20.4018 40.5325 19.9912 40.0676 20.0183 39.5254L20.0372 39.1479C20.2401 35.6991 20.8487 35.0905 21.1192 34.8876L21.3221 34.7523L25.6238 32.0389C23.1002 32.4294 20.697 33.3564 18.5495 34.7523L14.7625 37.2544C13.1831 38.2789 12.0079 39.7614 11.3559 41.4809C11.3654 41.4819 11.3749 41.483 11.3844 41.4842L16.6518 42.1538C17.3961 42.2484 17.9169 42.9368 17.8056 43.6788C17.4882 45.9007 17.3363 46.5499 17.1881 46.8568C17.1188 47.0002 17.0447 47.1444 16.9443 47.268C16.666 47.6107 15.7433 48.0405 10.7726 49.9936V53.0186C10.7726 53.7263 11.1466 54.3813 11.7561 54.741L13.7434 55.9139C14.3812 56.2903 14.5936 57.1121 14.2181 57.7504C13.8453 58.3842 13.0318 58.6 12.3938 58.2343L9.00545 56.2923C8.38358 55.9358 8 55.2739 8 54.5571V44.6931C8 40.7709 9.96112 37.1868 13.2071 35.0228L16.9941 32.5207C20.1048 30.492 23.7566 29.3423 27.4083 29.1395L39.5131 28.5985C44.7878 28.328 50.1302 29.4776 54.8639 31.9121L65.6326 37.3955C65.8012 37.4814 65.9811 37.5429 66.1669 37.5782L77.9916 39.8242C82.2519 40.6357 85.6331 43.6788 86.8504 47.8039L87.8833 51.2065C87.9603 51.4602 87.9861 51.7267 87.9592 51.9905L87.486 56.6284C87.3911 57.5581 86.6652 58.2981 85.7375 58.4108L81.4628 58.9302ZM80.1555 49.0211L84.9119 50.047L84.4835 48.5478C84.3978 48.2601 84.2989 47.9797 84.1873 47.707C83.9175 47.9247 83.5649 48.04 83.1927 48.0015L79.919 47.6628C79.4377 47.613 79.1255 48.1576 79.4117 48.5478C79.6145 48.8183 79.885 48.9535 80.1555 49.0211ZM53.8495 34.3466L63.6252 39.2926L61.858 40.4617C61.4886 40.706 61.0487 40.8208 60.607 40.7882L23.4112 38.0378C23.1225 38.0164 22.911 37.7548 22.9582 37.4692C22.9842 37.3123 23.0102 37.1693 23.0361 37.0441C23.0622 36.9182 23.141 36.8104 23.2497 36.7417L31.2531 31.6835L39.8512 31.3035C44.6526 31.1006 49.5216 32.1826 53.8495 34.3466ZM10.7726 44.6931C10.7726 44.5056 10.7783 44.3191 10.7895 44.1338C10.8693 44.1598 10.9527 44.1787 11.039 44.1898L14.4223 44.6235C14.7113 44.6606 14.9231 44.9674 14.8736 45.2546C14.8508 45.3863 14.7624 45.4689 14.6404 45.5236C13.869 45.8693 12.3921 46.4665 10.7726 47.1108V44.6931ZM30.7179 60.4995L30.8332 57.7969L62.5206 59.1489L62.4053 61.8515L30.7179 60.4995ZM58.2541 57.1469C58.9978 57.1783 59.6276 56.6041 59.6648 55.8607C59.7023 55.1099 59.1216 54.472 58.3706 54.4392L36.1364 53.4672C35.4222 53.436 34.7897 53.0185 34.4015 52.4183C31.7874 48.3767 26.9809 46.1935 22.1709 46.9208C21.4317 47.0326 20.9984 47.7793 21.1841 48.5035C21.3719 49.2359 22.1211 49.6647 22.8719 49.5759C26.8444 49.1061 30.7785 51.1342 32.5673 54.7574C32.7425 55.1121 32.994 55.4274 33.3231 55.6468L33.5698 55.8113C33.8744 56.0144 34.2289 56.1299 34.5947 56.1454L58.2541 57.1469Z" fill="#4D5160"/>
</svg>
