<svg width="96" height="96" viewBox="0 0 96 96" fill="none" xmlns="http://www.w3.org/2000/svg">
<g id="side">
<g id="side_2">
<g id="standard/Variant4">
<path id="Union" fill-rule="evenodd" clip-rule="evenodd" d="M85.3951 62.8195C85.9362 62.8195 86.3748 63.2581 86.3748 63.7991V64.6389C86.3748 65.1799 85.9362 65.6185 85.3951 65.6185H14.5779C14.0368 65.6185 13.5982 65.1799 13.5982 64.6389V63.7991C13.5982 63.2581 14.0368 62.8195 14.5779 62.8195H85.3951ZM9.81942 62.8894C10.3605 62.8894 10.7991 63.3281 10.7991 63.8691V64.7089C10.7991 65.2499 10.3605 65.6885 9.81941 65.6885H8.97968C8.43862 65.6885 8 65.2499 8 64.7089V63.8691C8 63.3281 8.43862 62.8894 8.97968 62.8894H9.81942Z" fill="#4D5160"/>
<path id="wheel" fill-rule="evenodd" clip-rule="evenodd" d="M18.2866 55.1513C18.2866 59.8398 22.0654 63.6185 26.7539 63.6185C31.4424 63.6185 35.2212 59.8398 35.2212 55.1513C35.2212 50.4628 31.4424 46.684 26.7539 46.684C22.0654 46.684 18.2866 50.4628 18.2866 55.1513ZM21.0857 55.2212C21.0857 52.0723 23.6749 49.5531 26.7539 49.5531C29.8329 49.5531 32.4221 52.0723 32.4221 55.2212C32.4221 58.3702 29.9029 60.8894 26.7539 60.8894C23.6049 60.8894 21.0857 58.3702 21.0857 55.2212ZM22.6952 55.0113C22.6952 57.2506 24.5146 59.07 26.7539 59.07C28.9932 59.07 30.8126 57.2506 30.8126 55.0113C30.8126 52.772 28.9932 50.9526 26.7539 50.9526C24.5146 50.9526 22.6952 52.772 22.6952 55.0113ZM25.4943 55.0813C25.4943 54.3815 26.0541 53.8217 26.7539 53.8217C27.4537 53.8217 28.0135 54.3815 28.0135 55.0813C28.0135 55.7811 27.4537 56.3409 26.7539 56.3409C26.0541 56.3409 25.4943 55.7811 25.4943 55.0813Z" fill="#4D5160"/>
<path id="wheel_2" fill-rule="evenodd" clip-rule="evenodd" d="M60.9729 55.1513C60.9729 59.8398 64.7517 63.6185 69.4402 63.6185C74.1287 63.6185 77.9074 59.8398 77.9074 55.1513C77.9074 50.4628 74.1287 46.684 69.4402 46.684C64.7517 46.684 60.9729 50.4628 60.9729 55.1513ZM63.772 55.2212C63.772 52.0723 66.3612 49.5531 69.4402 49.5531C72.5892 49.5531 75.1083 52.0723 75.1083 55.2212C75.1083 58.3702 72.5192 60.8894 69.4402 60.8894C66.2912 60.8894 63.772 58.3702 63.772 55.2212ZM65.3815 55.0113C65.3815 57.2506 67.2009 59.07 69.4402 59.07C71.6795 59.07 73.4989 57.2506 73.4989 55.0113C73.4989 52.772 71.6795 50.9526 69.4402 50.9526C67.2009 50.9526 65.3815 52.772 65.3815 55.0113ZM68.1806 55.0813C68.1806 54.3815 68.7404 53.8217 69.4402 53.8217C70.14 53.8217 70.6998 54.3815 70.6998 55.0813C70.6998 55.7811 70.14 56.3409 69.4402 56.3409C68.7404 56.3409 68.1806 55.7811 68.1806 55.0813Z" fill="#4D5160"/>
<path id="frame" fill-rule="evenodd" clip-rule="evenodd" d="M86.7476 54.8171C86.6142 55.8098 85.7671 56.5508 84.7654 56.5508H80.3567C79.8156 56.5508 79.377 56.1122 79.377 55.5711V54.7314C79.377 54.1903 79.8156 53.7517 80.3567 53.7517H83.6259C83.8773 53.7517 84.0896 53.565 84.1218 53.3157L84.3454 51.5824C84.5553 49.833 83.2957 48.9932 83.2957 48.9932L83.2765 48.9817L78.2574 47.8736C76.9278 47.5937 75.7382 46.754 74.8985 45.6343L74.2795 44.7604C73.965 44.3165 74.0725 43.7015 74.5187 43.3904L75.2205 42.9013C75.662 42.5936 76.269 42.6996 76.5801 43.1388L77.2077 44.0248C77.6276 44.5847 78.1874 45.0045 78.8872 45.1445L81.0279 45.6171C79.6008 43.8571 77.6815 42.3237 75.6682 41.8555L60.9729 38.0068L51.2461 33.1783C48.6569 31.7088 44.1084 30.7991 39.14 30.7991H30.1129C27.1738 30.7991 22.9052 33.8781 20.386 36.8172C19.4063 38.0068 18.2167 38.9865 16.9571 39.6862L12.5485 42.1355C11.4988 42.6953 10.869 43.8849 10.869 45.0745V49.763C10.869 51.5228 13.1318 53.2299 15.2844 53.6524C15.8153 53.7566 16.2573 54.1903 16.2573 54.7314V55.4626C16.2573 56.0442 15.7535 56.4978 15.1751 56.4369L14.9277 56.4109C11.4988 55.851 8.06995 53.1219 8.06995 49.763V45.0745C8.06995 42.8352 9.25956 40.8059 11.2189 39.6862L15.6275 37.237C16.6072 36.6772 17.5169 35.9075 18.2867 34.9977C21.2257 31.4989 26.1941 28 30.1129 28H39.14C41.7291 28 48.237 28.2799 52.6456 30.7291L62.0926 35.3476L76.368 39.0564C80.2867 40.0361 83.5757 43.605 85.1851 46.8239C86.1648 47.6637 87.4244 49.3431 87.1445 51.8623L86.7476 54.8171ZM35.0813 40.2461C35.0813 40.7871 34.6426 41.2257 34.1016 41.2257H33.2618C32.7208 41.2257 32.2822 40.7871 32.2822 40.2461V39.4063C32.2822 38.8653 32.7208 38.4266 33.2618 38.4266H34.1016C34.6426 38.4266 35.0813 38.8653 35.0813 39.4063V40.2461ZM29.4831 40.2461C29.4831 40.7871 29.0444 41.2257 28.5034 41.2257L26.684 41.2257H24.6947C24.4443 41.2257 24.2034 41.1299 24.0215 40.9578L22.3932 39.4176C22.0137 39.0586 21.9827 38.4649 22.3227 38.0683L22.5553 37.7968C24.9345 34.9278 29.0632 32.0587 32.3522 32.0587H39.2099C41.3093 32.0587 46.6276 32.2686 50.1964 34.298L57.7617 38.0176C58.2284 38.247 58.4345 38.8013 58.2311 39.2799L57.6576 40.6293C57.5039 40.9909 57.1489 41.2257 56.756 41.2257H39.5598C39.0188 41.2257 38.5802 40.7871 38.5802 40.2461V39.4063C38.5802 38.8653 39.0188 38.4266 39.5598 38.4266H52.2957L48.8668 36.7472C46.7675 35.5576 43.1987 34.8578 39.2099 34.8578H32.3522C30.4628 34.8578 27.8036 36.5373 25.8443 38.4266L26.684 38.4266H28.5034C29.0444 38.4266 29.4831 38.8653 29.4831 39.4063V40.2461ZM58.1039 53.7517H38.0903C37.5492 53.7517 37.1106 54.1903 37.1106 54.7314V55.5711C37.1106 56.1122 37.5492 56.5508 38.0903 56.5508H58.1039C58.6449 56.5508 59.0836 56.1122 59.0836 55.5711V54.7314C59.0836 54.1903 58.6449 53.7517 58.1039 53.7517Z" fill="#4D5160"/>
</g>
</g>
</g>
</svg>
