<svg width="96" height="96" viewBox="0 0 96 96" fill="none" xmlns="http://www.w3.org/2000/svg">
<g id="Pickup">
<g id="Pickup_2">
<g id="truck">
<path id="street" d="M83.5906 64.9134H11.0237V67.4331H83.5906V64.9134Z" fill="#4D5160"/>
<path id="Union" fill-rule="evenodd" clip-rule="evenodd" d="M61.6063 57.8741C61.6063 62.0315 65.0079 65.4331 69.1654 65.4331C73.3858 65.4331 76.7244 62.0315 76.7244 57.8741C76.7244 53.7166 73.3229 50.315 69.1654 50.315C65.0079 50.315 61.6063 53.7166 61.6063 57.8741ZM64.126 57.8111C64.126 55.0394 66.3937 52.7717 69.1654 52.7717C72 52.7717 74.2677 55.0394 74.2048 57.8111C74.2048 60.5827 71.937 62.8504 69.1654 62.8504C66.3937 62.8504 64.126 60.5827 64.126 57.8111ZM65.4489 57.748C65.4489 59.8268 67.0867 61.4646 69.1654 61.4646C71.2441 61.4646 72.8819 59.7638 72.8819 57.748C72.8819 55.6693 71.2441 54.0315 69.1654 54.0315C67.0867 54.0315 65.4489 55.6693 65.4489 57.748ZM67.9685 57.748C67.9685 57.1181 68.5355 56.5512 69.1654 56.5512C69.8583 56.5512 70.3622 57.0551 70.3622 57.748C70.3622 58.378 69.7953 58.9449 69.1654 58.9449C68.5355 58.9449 67.9685 58.378 67.9685 57.748Z" fill="#4D5160"/>
<path id="wheel" fill-rule="evenodd" clip-rule="evenodd" d="M18.8346 57.8741C18.8346 62.0315 22.2362 65.4331 26.3936 65.4331C30.6141 65.4331 33.9527 62.0315 33.9527 57.8741C33.9527 53.7166 30.5511 50.315 26.3936 50.315C22.2362 50.315 18.8346 53.7166 18.8346 57.8741ZM21.3543 57.8111C21.3543 55.0394 23.622 52.7717 26.3936 52.7717C29.2283 52.7717 31.496 55.0394 31.433 57.8111C31.433 60.5827 29.1653 62.8504 26.3936 62.8504C23.622 62.8504 21.3543 60.5827 21.3543 57.8111ZM22.6772 57.748C22.6772 59.8268 24.315 61.4646 26.3938 61.4646C28.4725 61.4646 30.1103 59.7638 30.1103 57.748C30.1103 55.6693 28.4725 54.0315 26.3938 54.0315C24.315 54.0315 22.6772 55.6693 22.6772 57.748ZM25.1969 57.748C25.1969 57.1181 25.7638 56.5512 26.3938 56.5512C27.0867 56.5512 27.5906 57.0551 27.5906 57.748C27.5906 58.378 27.0237 58.9449 26.3938 58.9449C25.7638 58.9449 25.1969 58.378 25.1969 57.748Z" fill="#4D5160"/>
<path id="outline" fill-rule="evenodd" clip-rule="evenodd" d="M82.1019 51.4488L81.9645 49.6829C81.9398 49.6843 81.9149 49.685 81.8898 49.685H77.9213C75.9055 49.685 74.2677 48.0472 74.2677 46.0315C74.2677 45.3705 74.8036 44.8346 75.4646 44.8346H75.5906C76.2516 44.8346 76.7874 45.3705 76.7874 46.0315C76.7874 46.6614 77.2913 47.1653 77.9213 47.1653H81.7687L81.7638 47.1024C81.4515 45.1662 79.9626 43.6635 78.0954 43.3311C78.0634 43.3254 78.031 43.3228 77.9985 43.3228C77.9472 43.3228 77.8962 43.3161 77.8466 43.3029L68.5304 40.8147C68.3595 40.7691 68.1968 40.7013 68.0459 40.6142H45.6693C44.9764 40.6142 44.2835 40.2992 43.7796 39.7953C43.2756 39.2913 43.0866 38.5984 43.1496 37.8425L43.5906 32.8032C43.7165 31.4803 44.7874 30.5354 46.1102 30.5354H50.9449C51.6407 30.5354 52.2047 31.0995 52.2047 31.7953C52.2047 32.4911 51.6407 33.0551 50.9449 33.0551H46.5684C46.3091 33.0551 46.0929 33.2533 46.0703 33.5115L45.7169 37.5509C45.6913 37.8431 45.9216 38.0945 46.215 38.0945H66.1698L60.5354 29.2756C60.2205 28.8346 59.6536 28.5197 59.0866 28.5197H43.5906C42.6457 28.5197 41.8898 29.2126 41.8268 30.0945L40.8819 39.4173V48.5512C40.8819 49.247 40.3178 49.811 39.6221 49.811C38.9263 49.811 38.3622 49.247 38.3622 48.5512V39.2283L39.3071 29.8425C39.5591 27.6378 41.3858 26 43.5906 26H59.0866C60.5355 26 61.8583 26.6929 62.6772 27.8898L68.936 37.7504C69.205 38.1742 69.6235 38.4814 70.1085 38.6109L78.5512 40.8661C81.4914 41.4292 83.8103 43.7317 84.2741 46.7249C84.2805 46.7664 84.2835 46.8085 84.2835 46.8504L84.6273 51.3201C84.631 51.3673 84.6319 51.414 84.6304 51.4603C85.7278 51.5749 86.6142 52.5311 86.6142 53.6535V53.7795C86.6142 56.8661 84.0945 59.3228 81.0709 59.3228H76.0945V56.8031H81.0709C82.7087 56.8031 84.0315 55.5433 84.0945 53.9685H79.3701C78.6743 53.9685 78.1103 53.4044 78.1103 52.7086C78.1103 52.0128 78.6743 51.4488 79.3701 51.4488H82.1019ZM59.7166 53.9055C60.4124 53.9055 60.9764 53.3415 60.9764 52.6457C60.9764 51.9499 60.4124 51.3858 59.7166 51.3858H37.3462C36.7527 51.3858 36.1898 51.1222 35.8098 50.6662L32.2848 46.4362C31.9048 45.9802 31.3419 45.7165 30.7483 45.7165H12.4094L12.4094 41.1142C12.4094 40.838 12.6333 40.6142 12.9094 40.6142H32.7559C33.4517 40.6142 34.0158 40.0501 34.0158 39.3543C34.0158 38.6585 33.4517 38.0945 32.7559 38.0945H10.8898C10.3375 38.0945 9.88976 38.5422 9.88976 39.0945V51.5118C9.88976 51.6588 9.91494 51.7999 9.96121 51.9311C8.78556 52.5838 8 53.8357 8 55.2913C8 57.433 9.70081 59.1338 11.8425 59.1338H18.8347C19.5304 59.1338 20.0945 58.5698 20.0945 57.874C20.0945 57.1782 19.5304 56.6141 18.8347 56.6141H11.8425C11.0866 56.6141 10.5197 56.0472 10.5197 55.2913C10.5197 54.5354 11.0866 53.9684 11.8425 53.9684H13.9213C14.6171 53.9684 15.1811 53.4044 15.1811 52.7086C15.1811 52.0128 14.6171 51.4488 13.9213 51.4488H12.4094L12.4094 48.2362H29.5594C30.1484 48.2362 30.7074 48.4958 31.0874 48.9459L34.6764 53.1959C35.0564 53.6459 35.6154 53.9055 36.2044 53.9055H59.7166ZM62.2992 56.8031H32.7559V59.3228H62.2992V56.8031ZM57.7638 31.7953C57.7638 32.4911 57.1997 33.0551 56.5039 33.0551C55.8081 33.0551 55.2441 32.4911 55.2441 31.7953C55.2441 31.0995 55.8081 30.5354 56.5039 30.5354C57.1997 30.5354 57.7638 31.0995 57.7638 31.7953Z" fill="#4D5160"/>
</g>
</g>
</g>
</svg>
