<svg width="96" height="96" viewBox="0 0 96 96" fill="none" xmlns="http://www.w3.org/2000/svg">
<path d="M84.3826 60.0051H9.66956C9.05485 60.0051 8.55652 60.5035 8.55652 61.1182V61.6747C8.55652 62.2894 9.05484 62.7877 9.66956 62.7877H84.3826C84.9973 62.7877 85.4957 62.2894 85.4957 61.6747V61.1182C85.4957 60.5035 84.9973 60.0051 84.3826 60.0051Z" fill="#4D5160"/>
<path fill-rule="evenodd" clip-rule="evenodd" d="M19.4087 53.553C19.4087 57.5182 22.6782 60.7877 26.6434 60.7877C30.6087 60.7877 33.8782 57.5877 33.8782 53.553C33.8782 49.5877 30.6087 46.3182 26.6434 46.3182C22.6782 46.3182 19.4087 49.5877 19.4087 53.553ZM22.1913 53.6225C22.1913 51.1877 24.2087 49.1704 26.6434 49.1704C29.0782 49.1704 31.0956 51.1182 31.0956 53.6225C31.0956 56.0573 29.0782 58.0747 26.6434 58.0747C24.2087 58.0747 22.1913 56.0573 22.1913 53.6225ZM26.6434 55.6399C25.4608 55.6399 24.4869 54.666 24.4869 53.4834C24.4869 52.3008 25.4608 51.3269 26.6434 51.3269C27.826 51.3269 28.8 52.3008 28.8 53.4834C28.8 54.666 27.826 55.6399 26.6434 55.6399Z" fill="#4D5160"/>
<path fill-rule="evenodd" clip-rule="evenodd" d="M65.6 53.553C65.6 57.5182 68.8696 60.7877 72.8348 60.7877C76.8696 60.7877 80.0696 57.5877 80.0696 53.553C80.0696 49.5877 76.8 46.3182 72.8348 46.3182C68.8696 46.3182 65.6 49.5877 65.6 53.553ZM68.3826 53.6225C68.3826 51.1877 70.4 49.1704 72.8348 49.1704C75.3391 49.1704 77.287 51.1182 77.287 53.6225C77.287 56.0573 75.2696 58.0747 72.8348 58.0747C70.4 58.0747 68.3826 56.0573 68.3826 53.6225ZM74.9912 53.4834C74.9912 54.6744 74.0257 55.6399 72.8347 55.6399C71.6437 55.6399 70.6782 54.6744 70.6782 53.4834C70.6782 52.2924 71.6437 51.3269 72.8347 51.3269C74.0257 51.3269 74.9912 52.2924 74.9912 53.4834Z" fill="#4D5160"/>
<path fill-rule="evenodd" clip-rule="evenodd" d="M80.7788 56.2229C80.8868 56.8244 81.4596 57.2264 82.062 57.1234L85.3354 56.5634C85.87 56.472 86.2608 56.0086 86.2608 55.4663V50.0747C86.2608 48.3356 85.2869 46.7356 83.7565 45.9704L82.2956 45.2747C78.2608 43.2573 73.8782 41.9356 69.426 41.3095L59.3255 39.9537C59.1515 39.9303 58.9855 39.8657 58.8402 39.7672C50.1082 33.8407 39.0112 32.3653 29.0086 35.8834L20.4521 38.8747L20.4517 38.8749L20.4517 38.8749L20.4515 38.8749C17.3129 39.9698 15.2721 40.6817 13.9332 41.1654L13.903 39.2921H14.8173C15.4321 39.2921 15.9304 38.7938 15.9304 38.1791V37.6225C15.9304 37.0078 15.4321 36.5095 14.8173 36.5095H10.226C9.6113 36.5095 9.11298 37.0078 9.11298 37.6225V38.1791C9.11298 38.7938 9.6113 39.2921 10.226 39.2921H11.1199L11.1642 42.032C11.1664 42.1696 11.1935 42.3009 11.2411 42.4217C11.2273 42.4443 11.214 42.4676 11.1999 42.4921C10.0869 44.3704 9.66952 46.666 10.0173 48.8225L11.1201 55.7455C11.2062 56.2858 11.6722 56.6834 12.2193 56.6834H16.8347C17.4494 56.6834 17.9478 56.1851 17.9478 55.5704V55.0138C17.9478 54.3991 17.4494 53.9008 16.8347 53.9008H14.0645C13.8174 53.9008 13.6073 53.7202 13.5702 53.4759L12.8 48.4051C12.6132 47.1602 12.7607 45.8595 13.2423 44.7025C13.3514 44.4405 13.5716 44.2473 13.8385 44.1509C15.5176 43.5447 19.3594 42.1943 23.3701 40.7845L23.3705 40.7844L23.3707 40.7843L23.3718 40.7839L23.3726 40.7836L23.3731 40.7835L23.3749 40.7828C25.4114 40.067 27.4913 39.3359 29.3535 38.6792L33.536 42.0362C33.8496 42.2879 34.2318 42.4392 34.6326 42.4705L55.6858 44.1101C56.1156 44.1436 56.5447 44.0373 56.9091 43.8071L58.7438 42.6484L69.1478 44.0225C73.3217 44.5791 77.3565 45.8312 81.113 47.7095L82.5739 48.4051C83.1999 48.6834 83.5478 49.3095 83.5478 50.0051V53.6226C83.5478 53.8643 83.375 54.0713 83.1372 54.1146L81.5795 54.3978C80.9757 54.5076 80.5747 55.0854 80.6831 55.6895L80.7788 56.2229ZM34.9404 39.6128L32.539 37.6844C40.4785 35.6588 48.8986 36.9214 55.9145 41.1443L55.7922 41.2213C55.7012 41.2786 55.5942 41.305 55.4871 41.2967L35.2148 39.7215C35.1145 39.7137 35.0189 39.6758 34.9404 39.6128ZM37.0086 53.553H62.7477C63.3625 53.553 63.8608 54.0513 63.8608 54.666V55.2225C63.8608 55.8373 63.3625 56.3356 62.7477 56.3356H37.0086C36.3939 56.3356 35.8956 55.8373 35.8956 55.2225V54.666C35.8956 54.0513 36.3939 53.553 37.0086 53.553ZM54.9824 51.833C55.5859 51.8996 56.1314 51.4704 56.2086 50.8682L56.2735 50.3619C56.3525 49.7452 55.9111 49.1833 55.2932 49.1142L36.8998 47.0562C36.6547 47.0287 36.4256 46.9206 36.2485 46.7489L32.6616 43.269C32.2196 42.8402 31.5135 42.8518 31.0858 43.2948L30.6879 43.7069C30.2602 44.1499 30.2734 44.8559 30.7173 45.2826L34.9966 49.395C35.1735 49.5651 35.4018 49.6719 35.6457 49.6989L54.9824 51.833Z" fill="#4D5160"/>
</svg>
