<svg width="96" height="96" viewBox="0 0 96 96" fill="none" xmlns="http://www.w3.org/2000/svg">
<path d="M87.4482 65.6087C87.4482 64.8469 86.8307 64.2293 86.0689 64.2293H9.37931C8.61754 64.2293 8 64.8469 8 65.6087C8 66.3704 8.61754 66.988 9.37931 66.988H86.0689C86.8307 66.988 87.4482 66.3704 87.4482 65.6087Z" fill="#4D5160"/>
<path fill-rule="evenodd" clip-rule="evenodd" d="M13.8621 58.1604C13.8621 63.0569 17.8621 66.988 22.6896 66.988C27.5862 66.988 31.5172 63.0569 31.5172 58.1604C31.5172 53.2638 27.5862 49.3328 22.6896 49.3328C17.7931 49.3328 13.8621 53.3328 13.8621 58.1604ZM16.6207 58.1604C16.6207 54.7811 19.3793 52.0914 22.6896 52.0914C26.0689 52.0914 28.7586 54.85 28.7586 58.1604C28.7586 61.5397 26 64.2293 22.6896 64.2293C19.3103 64.2293 16.6207 61.4707 16.6207 58.1604ZM18.5517 58.0225C18.5517 60.2983 20.4138 62.1604 22.6896 62.1604C24.9655 62.1604 26.8965 60.2983 26.8276 58.0225C26.8276 55.7466 24.9655 53.8845 22.6896 53.8845C20.4138 53.8845 18.5517 55.7466 18.5517 58.0225ZM21.3103 58.0225C21.3103 57.2638 21.931 56.6431 22.6896 56.6431C23.4483 56.6431 24.1379 57.2638 24.0689 58.0225C24.0689 58.7811 23.4483 59.4018 22.6896 59.4018C21.931 59.4018 21.3103 58.7811 21.3103 58.0225Z" fill="#4D5160"/>
<path fill-rule="evenodd" clip-rule="evenodd" d="M60.4827 58.1604C60.4827 63.0569 64.4827 66.988 69.3103 66.988C74.1379 66.988 78.1379 63.0569 78.1379 58.1604C78.1379 53.2638 74.2069 49.3328 69.3103 49.3328C64.4138 49.3328 60.4827 53.3328 60.4827 58.1604ZM63.2413 58.1604C63.2413 54.7811 66 52.0914 69.3103 52.0914C72.6206 52.0914 75.3793 54.85 75.3793 58.1604C75.3793 61.5397 72.6896 64.2293 69.3103 64.2293C65.931 64.2293 63.2413 61.4707 63.2413 58.1604ZM65.1724 58.0225C65.1724 60.2983 67.0344 62.1604 69.3103 62.1604C71.5862 62.1604 73.4482 60.2983 73.4482 58.0225C73.4482 55.7466 71.5862 53.8845 69.3103 53.8845C67.0344 53.8845 65.1724 55.7466 65.1724 58.0225ZM67.931 58.0225C67.931 57.2638 68.5517 56.6431 69.3103 56.6431C70.0689 56.6431 70.6896 57.2638 70.6896 58.0225C70.6896 58.7811 70.0689 59.4018 69.3103 59.4018C68.5517 59.4018 67.931 58.7811 67.931 58.0225Z" fill="#4D5160"/>
<path fill-rule="evenodd" clip-rule="evenodd" d="M10.0913 58.3866L14.9655 59.5397L15.7241 56.7811L11.4483 55.7466V43.5397C11.4483 42.4362 11.7931 41.4017 12.5517 40.5742L16.4138 36.2983C17.3103 35.3328 22.2758 33.2638 23.7931 33.2638L37.5172 32.85C44.2759 32.6431 50.9655 34.2293 56.8965 37.4017L62.4437 40.3924L62.1379 40.7121L22.1379 38.3673L22.1621 38.343C22.6932 37.807 22.645 36.906 22.0927 36.3918C21.5487 35.8852 20.6953 35.9219 20.1898 36.467C19.7602 36.9302 19.341 37.3763 18.9946 37.7426C18.4731 38.2943 18.3109 39.0956 18.582 39.8047C18.8574 40.525 19.5293 41.017 20.2991 41.0621L62.5517 43.5397L63.5862 43.0569L64.9431 41.7L78.6897 44.3673C80.7832 44.7247 82.5364 46.0651 83.4736 47.8845H82.4828C81.2509 47.8845 80.3412 47.3317 79.5798 46.5493C79.0431 45.9978 78.1857 45.8487 77.57 46.3105C76.9669 46.7628 76.8304 47.624 77.3381 48.1812C78.6733 49.6467 80.3288 50.6431 82.4828 50.6431H84.1588L84.2758 54.5052C84.2758 54.7121 84.1379 54.85 83.931 54.85L76.7586 55.3328L76.8965 58.0914L84.069 57.6086C85.7241 57.5397 87.0345 56.0914 86.9655 54.4362L86.8276 49.8155V49.6776C86.2069 45.6776 83.1724 42.4362 79.1724 41.6776L65.7241 39.1259L58.1379 35.0569C51.7931 31.6086 44.6207 29.9535 37.3793 30.1604L23.6551 30.5742C21.5172 30.5742 15.7931 32.919 14.2758 34.5742L10.4138 38.85C9.24138 40.1604 8.55171 41.8155 8.55171 43.6086V56.4404C8.55171 57.3676 9.18899 58.1732 10.0913 58.3866ZM35.0344 56.781H56.9655C57.7273 56.781 58.3448 57.3986 58.3448 58.1604C58.3448 58.9221 57.7273 59.5397 56.9655 59.5397H35.0344C34.2727 59.5397 33.6551 58.9221 33.6551 58.1604C33.6551 57.3986 34.2727 56.781 35.0344 56.781ZM63.2872 45.5852L36.4704 44.7943C35.7089 44.7718 35.0734 45.3709 35.0509 46.1324C35.0285 46.8939 35.6276 47.5294 36.389 47.5518L63.2059 48.3427C63.9674 48.3652 64.6029 47.7661 64.6253 47.0046C64.6478 46.2432 64.0487 45.6077 63.2872 45.5852ZM28.3448 47.2983C29.1066 47.3173 29.7396 46.7152 29.7586 45.9535C29.7777 45.1917 29.1756 44.5587 28.4138 44.5397C27.652 44.5206 27.019 45.1227 27 45.8845C26.981 46.6463 27.5831 47.2793 28.3448 47.2983Z" fill="#4D5160"/>
</svg>
