<svg width="96" height="96" viewBox="0 0 96 96" fill="none" xmlns="http://www.w3.org/2000/svg">
<path fill-rule="evenodd" clip-rule="evenodd" d="M73.426 39.198C73.7212 39.8256 74.5416 39.9848 75.0501 39.5131L78.6728 36.1529C78.8762 35.9643 78.9944 35.7012 79.0004 35.4239L79.0358 33.7993C79.0498 33.1515 79.6542 32.6792 80.2863 32.8221L84.7123 33.8233C84.9458 33.8761 85.1116 34.0836 85.1116 34.323V35.7775C85.1116 36.0604 84.8822 36.2898 84.5993 36.2898H81.7439C81.1779 36.2898 80.7192 36.7486 80.7192 37.3145V38.1454C80.7192 38.7113 81.1779 39.1701 81.7439 39.1701H85.5437C86.9118 39.1701 87.9919 38.09 87.9919 36.7219V33.6256C87.9919 32.4734 87.1998 31.5374 86.0477 31.2493L79.135 29.6652C78.4149 29.5211 77.6229 29.6652 77.0468 30.1692C76.4707 30.6013 76.1107 31.3213 76.1107 32.0414L76.0465 34.4162C76.0415 34.6021 75.9654 34.7789 75.8339 34.9104C75.478 35.2664 74.8767 35.1614 74.6625 34.7058L68.838 22.3204C67.6139 19.6562 64.9496 18 62.0693 18H34.9226C32.0423 18 29.378 19.7282 28.1539 22.3204L22.3294 34.7058C22.1152 35.1614 21.5139 35.2664 21.158 34.9104C21.0265 34.7789 20.9504 34.6021 20.9454 34.4162L20.8812 32.0414C20.8812 31.2493 20.5212 30.6013 19.9451 30.0972C19.369 29.5932 18.577 29.4491 17.8569 29.5932L10.9442 31.1773C9.79208 31.3933 9 32.4014 9 33.5536V36.7219C9 38.09 10.0801 39.1701 11.4482 39.1701H15.248C15.8139 39.1701 16.2727 38.7113 16.2727 38.1454V37.3145C16.2727 36.7486 15.814 36.2898 15.248 36.2898H12.3926C12.1097 36.2898 11.8803 36.0604 11.8803 35.7775V34.323C11.8803 34.0836 12.0461 33.8761 12.2796 33.8233L16.7056 32.8221C17.3377 32.6792 17.9421 33.1515 17.9562 33.7993L17.992 35.4464C17.9977 35.7104 18.1051 35.962 18.2918 36.1487L21.5782 39.4351C22.0801 39.937 22.9279 39.7889 23.23 39.1466L30.6022 23.4725C31.3942 21.8164 32.9784 20.8083 34.7786 20.8083H61.8533C63.6535 20.8083 65.3096 21.8884 66.0297 23.4725L73.426 39.198ZM67.9573 36.2178H27.5945C27.0285 36.2178 26.5697 36.6766 26.5697 37.2425V38.0734C26.5697 38.6393 27.0285 39.0981 27.5945 39.0981H67.9573C68.5232 39.0981 68.982 38.6393 68.982 38.0734V37.2425C68.982 36.6766 68.5232 36.2178 67.9573 36.2178ZM25.6337 73.1575H17.1368C14.9046 73.1575 13.1044 71.3573 13.1044 69.1251V67.1975C13.1044 66.6316 13.5632 66.1728 14.1291 66.1728H14.96C15.5259 66.1728 15.9847 66.6316 15.9847 67.1975V69.1251C15.9847 69.7732 16.4887 70.2772 17.1368 70.2772H25.6337C26.2817 70.2772 26.7858 69.7732 26.7858 69.1251V67.1975C26.7858 66.6316 27.2445 66.1728 27.8105 66.1728H28.6413C29.2073 66.1728 29.6661 66.6316 29.6661 67.1975V69.1251C29.5941 71.3573 27.7939 73.1575 25.6337 73.1575ZM21.4739 55.9515H31.2502C33.1224 55.9515 34.6346 54.4394 34.5626 52.5672V51.2711C34.5626 49.6869 33.4825 48.3188 31.9703 47.9587L23.9775 46.0146C22.9694 45.7985 21.8893 46.0146 21.0972 46.6626C20.3051 47.3107 19.8011 48.2468 19.8011 49.3269V49.5983C19.8011 50.1642 20.2599 50.623 20.8258 50.623H21.6567C22.2226 50.623 22.6814 50.1642 22.6814 49.5983V49.3269C22.6814 49.1109 22.8254 48.9669 22.8974 48.8948C22.9195 48.8948 22.9482 48.8813 22.9838 48.8647L22.9838 48.8647C23.0644 48.8269 23.1796 48.7729 23.3294 48.8228L31.3222 50.767C31.6103 50.839 31.7543 51.0551 31.7543 51.2711V52.5672C31.7543 52.8552 31.5383 53.0713 31.2502 53.0713H21.4739C20.9079 53.0713 20.4492 53.53 20.4492 54.096V54.9268C20.4492 55.4928 20.9079 55.9515 21.4739 55.9515ZM15.1538 64.5166H74.5265H81.0471C82.1789 64.5166 83.0954 63.5991 83.0954 62.4672V49.1071C83.0954 46.3708 82.0873 43.8506 80.1431 41.9064L78.2754 40.0387C77.8753 39.6385 77.2264 39.6385 76.8263 40.0387L76.2592 40.6058C75.8591 41.0059 75.8591 41.6547 76.2592 42.0549L78.1269 43.9226C79.5671 45.2907 80.2871 47.0909 80.2871 49.0351V60.6117C80.2871 61.1776 79.8283 61.6364 79.2624 61.6364H16.9374C16.3715 61.6364 15.9127 61.1776 15.9127 60.6117V48.9631C15.9127 47.0189 16.7048 45.2187 18.0729 43.8506L19.9406 41.9829C20.3408 41.5827 20.3408 40.9339 19.9406 40.5337L19.3735 39.9667C18.9734 39.5665 18.3246 39.5665 17.9244 39.9667L16.0567 41.8344C14.1845 43.7786 13.1044 46.2988 13.1044 49.0351V62.4672C13.1044 63.5991 14.022 64.5166 15.1538 64.5166ZM79.567 73.1575H71.0702C68.8379 73.1575 67.0378 71.3573 67.0378 69.1251V67.1975C67.0378 66.6316 67.4965 66.1728 68.0625 66.1728H68.8933C69.4593 66.1728 69.9181 66.6316 69.9181 67.1975V69.1251C69.9181 69.7732 70.4221 70.2772 71.0702 70.2772H79.567C80.2151 70.2772 80.7191 69.7732 80.7191 69.1251V67.1975C80.7191 66.6316 81.1779 66.1728 81.7438 66.1728H82.5747C83.1406 66.1728 83.5994 66.6316 83.5994 67.1975V69.1251C83.5274 71.3573 81.7272 73.1575 79.567 73.1575ZM61.9253 52.2754C61.9253 54.1476 63.4374 55.6598 65.3096 55.6598H75.014C75.5799 55.6598 76.0387 55.201 76.0387 54.6351V53.8042C76.0387 53.2383 75.5799 52.7795 75.014 52.7795H65.2376C64.9496 52.7795 64.7336 52.5635 64.7336 52.2754V50.9793C64.7336 50.7633 64.9496 50.5473 65.1656 50.4752L73.1584 48.5311C73.3744 48.459 73.5184 48.5311 73.5905 48.6031C73.6625 48.6751 73.8065 48.8191 73.8065 49.0351V49.3065C73.8065 49.8725 74.2653 50.3312 74.8312 50.3312H75.6621C76.228 50.3312 76.6868 49.8725 76.6868 49.3065V49.0351C76.6868 48.027 76.1827 47.0189 75.3906 46.3708C74.5986 45.7228 73.5184 45.5068 72.5103 45.7228L64.5176 47.667C63.0054 48.027 61.9253 49.3951 61.9253 50.9793V52.2754ZM65.2368 29.9577C64.7208 30.1936 64.1114 29.9653 63.8773 29.4484L62.5734 26.5688C62.1413 25.7048 61.2772 25.1287 60.2691 25.1287H35.5873C35.0213 25.1287 34.5626 24.6699 34.5626 24.104V23.2731C34.5626 22.7072 35.0213 22.2484 35.5873 22.2484H60.1971C62.2853 22.2484 64.2295 23.4725 65.0936 25.4167L66.4006 28.303C66.6335 28.8172 66.4066 29.4229 65.8932 29.6576L65.2368 29.9577ZM85.095 77.9704H84.2642C83.6982 77.9704 83.2394 77.5117 83.2394 76.9457V76.138C83.2394 75.5721 83.6982 75.1133 84.2642 75.1133H85.095C85.6609 75.1133 86.1197 75.5721 86.1197 76.138V76.9457C86.1197 77.5117 85.6609 77.9704 85.095 77.9704ZM77.8223 75.1133H11.4649C10.8989 75.1133 10.4401 75.5721 10.4401 76.138V76.9457C10.4401 77.5117 10.8989 77.9704 11.4649 77.9704H77.8223C78.3882 77.9704 78.847 77.5117 78.847 76.9457V76.138C78.847 75.5721 78.3882 75.1133 77.8223 75.1133ZM58.4523 60.1242C59.0183 60.1242 59.4862 59.6618 59.3893 59.1042C58.9122 56.3572 56.5434 54.2196 53.6445 54.2196H42.9874C40.0884 54.2196 37.7197 56.3572 37.2425 59.1042C37.1457 59.6618 37.6136 60.1242 38.1795 60.1242H39.0104C39.5763 60.1242 40.0181 59.6533 40.1993 59.1172C40.5939 57.9492 41.6618 57.0999 42.9874 57.0999H53.6445C54.97 57.0999 56.038 57.9492 56.4326 59.1172C56.6137 59.6533 57.0555 60.1242 57.6215 60.1242H58.4523Z" fill="#4D5160"/>
</svg>
